<svg xmlns="http://www.w3.org/2000/svg" viewBox="0 0 179.67 179.67"><defs><style>.cls-1{fill:#006cb5;}.cls-2{fill:#00507c;}.cls-3{fill:#4f8fcd;}.cls-4{fill:#fff;}.cls-5{fill:#a86838;}.cls-6{fill:#db9b67;}.cls-7{fill:#f6d330;}.cls-8{fill:#ffe36c;}.cls-9{fill:#d38239;}.cls-10{fill:#a2d0ea;}.cls-11{fill:#3880ba;}.cls-12{fill:#bf7232;}</style></defs><title>Ресурс 2</title><g id="Слой_2" data-name="Слой 2"><g id="Слой_1-2" data-name="Слой 1"><circle class="cls-1" cx="89.83" cy="89.83" r="89.83"/><path class="cls-2" d="M11.36,133.58a89.85,89.85,0,0,0,156.94,0Z"/><rect class="cls-3" x="29.87" y="51.33" width="37.67" height="83"/><rect class="cls-3" x="115.54" y="83.02" width="37.67" height="51.13"/><rect class="cls-4" x="58.87" y="35.58" width="60" height="105"/><rect class="cls-5" x="26.87" y="46.83" width="32" height="4.5"/><rect class="cls-6" x="55.21" y="30.92" width="66.33" height="4.67"/><rect class="cls-5" x="118.87" y="78.52" width="37.33" height="4.5"/><rect class="cls-7" x="40" y="58.58" width="9.5" height="12.83"/><rect class="cls-8" x="40" y="58.58" width="4.75" height="12.83"/><rect class="cls-7" x="40" y="80.21" width="9.5" height="12.83"/><rect class="cls-8" x="40" y="80.21" width="4.75" height="12.83"/><rect class="cls-7" x="40" y="101.83" width="9.5" height="12.83"/><rect class="cls-8" x="40" y="101.83" width="4.75" height="12.83"/><rect class="cls-7" x="118.87" y="89.42" width="9.5" height="12.83"/><rect class="cls-8" x="118.87" y="89.42" width="4.75" height="12.83"/><rect class="cls-7" x="135.58" y="89.42" width="9.5" height="12.83"/><rect class="cls-8" x="135.58" y="89.42" width="4.75" height="12.83"/><rect class="cls-7" x="118.87" y="110.08" width="9.5" height="12.83"/><rect class="cls-8" x="118.87" y="110.08" width="4.75" height="12.83"/><rect class="cls-7" x="135.58" y="110.08" width="9.5" height="12.83"/><rect class="cls-8" x="135.58" y="110.08" width="4.75" height="12.83"/><rect class="cls-9" x="76.28" y="125.57" width="22" height="8.03" transform="translate(-42.31 216.86) rotate(-90)"/><rect class="cls-10" x="90" y="35.58" width="28.88" height="105"/><rect class="cls-11" x="66.87" y="40.67" width="9.5" height="12.83"/><rect class="cls-3" x="66.87" y="40.67" width="4.75" height="12.83"/><rect class="cls-11" x="84.62" y="40.67" width="9.5" height="12.83"/><rect class="cls-3" x="84.62" y="40.67" width="4.75" height="12.83"/><rect class="cls-11" x="101.75" y="40.67" width="9.5" height="12.83"/><rect class="cls-3" x="101.75" y="40.67" width="4.75" height="12.83"/><rect class="cls-11" x="67.19" y="62.33" width="9.5" height="12.83"/><rect class="cls-3" x="67.19" y="62.33" width="4.75" height="12.83"/><rect class="cls-11" x="84.94" y="62.33" width="9.5" height="12.83"/><rect class="cls-3" x="84.94" y="62.33" width="4.75" height="12.83"/><rect class="cls-11" x="102.06" y="62.33" width="9.5" height="12.83"/><rect class="cls-3" x="102.06" y="62.33" width="4.75" height="12.83"/><rect class="cls-11" x="67.5" y="83.42" width="9.5" height="12.83"/><rect class="cls-3" x="67.5" y="83.42" width="4.75" height="12.83"/><rect class="cls-11" x="85.25" y="83.42" width="9.5" height="12.83"/><rect class="cls-3" x="85.25" y="83.42" width="4.75" height="12.83"/><rect class="cls-11" x="102.37" y="83.42" width="9.5" height="12.83"/><rect class="cls-3" x="102.37" y="83.42" width="4.75" height="12.83"/><rect class="cls-12" x="82.29" y="126.13" width="22" height="6.92" transform="translate(-36.29 222.87) rotate(-90)"/></g></g></svg>