<svg xmlns="http://www.w3.org/2000/svg" viewBox="0 0 179.67 179.67"><defs><style>.cls-1{fill:#006cb5;}.cls-2{fill:#00507c;}.cls-3{fill:#fff;}.cls-4{fill:#f6d330;}.cls-5{fill:#5b8e46;}.cls-6{fill:#a2d0ea;}.cls-7{fill:#4f8fcd;}.cls-8{fill:#232323;}.cls-9{fill:#a86838;}</style></defs><title>Ресурс 3</title><g id="Слой_2" data-name="Слой 2"><g id="Слой_1-2" data-name="Слой 1"><circle class="cls-1" cx="89.83" cy="89.83" r="89.83"/><path class="cls-2" d="M11.36,133.58a89.85,89.85,0,0,0,156.94,0Z"/><circle class="cls-3" cx="50.13" cy="80.67" r="8.92"/><path class="cls-4" d="M61.38,116.92H38.71V100.17A10.58,10.58,0,0,1,49.29,89.59H50.8a10.58,10.58,0,0,1,10.58,10.58Z"/><rect class="cls-3" x="38.71" y="103.25" width="5.33" height="13.66"/><rect class="cls-3" x="56.04" y="103.25" width="5.33" height="13.66"/><rect class="cls-5" x="44.04" y="116.92" width="12" height="19.67"/><circle class="cls-3" cx="152.34" cy="80.67" r="8.92"/><path class="cls-6" d="M151.5,89.59H153a10.58,10.58,0,0,1,10.58,10.58v16.75a0,0,0,0,1,0,0H140.92a0,0,0,0,1,0,0V100.17A10.58,10.58,0,0,1,151.5,89.59Z"/><rect class="cls-3" x="140.92" y="103.25" width="5.33" height="13.66"/><rect class="cls-3" x="158.25" y="103.25" width="5.33" height="13.66"/><rect class="cls-7" x="146.25" y="116.92" width="12" height="19.67"/><circle class="cls-3" cx="75.69" cy="80.67" r="8.92"/><path class="cls-8" d="M74.84,89.59h1.51a10.58,10.58,0,0,1,10.58,10.58v16.75a0,0,0,0,1,0,0H64.26a0,0,0,0,1,0,0V100.17A10.58,10.58,0,0,1,74.84,89.59Z"/><rect class="cls-3" x="64.26" y="103.25" width="5.33" height="13.66"/><rect class="cls-3" x="81.59" y="103.25" width="5.33" height="13.66"/><rect class="cls-6" x="69.59" y="116.92" width="12" height="19.67"/><circle class="cls-3" cx="101.24" cy="80.67" r="8.92"/><path class="cls-9" d="M100.39,89.59h1.51a10.58,10.58,0,0,1,10.58,10.58v16.75a0,0,0,0,1,0,0H89.81a0,0,0,0,1,0,0V100.17A10.58,10.58,0,0,1,100.39,89.59Z"/><rect class="cls-3" x="89.81" y="103.25" width="5.33" height="13.66"/><rect class="cls-3" x="107.15" y="103.25" width="5.33" height="13.66"/><rect class="cls-4" x="95.15" y="116.92" width="12" height="19.67"/><circle class="cls-3" cx="126.79" cy="80.67" r="8.92"/><path class="cls-5" d="M125.94,89.59h1.51A10.58,10.58,0,0,1,138,100.17v16.75a0,0,0,0,1,0,0H115.36a0,0,0,0,1,0,0V100.17A10.58,10.58,0,0,1,125.94,89.59Z"/><rect class="cls-3" x="115.36" y="103.25" width="5.33" height="13.66"/><rect class="cls-3" x="132.7" y="103.25" width="5.33" height="13.66"/><rect class="cls-8" x="120.7" y="116.92" width="12" height="19.67"/><circle class="cls-3" cx="37.6" cy="67.68" r="6.44"/><circle class="cls-3" cx="62.82" cy="68.35" r="6.44"/><circle class="cls-3" cx="88.37" cy="67.68" r="6.44"/><circle class="cls-3" cx="113.92" cy="68.35" r="6.44"/><circle class="cls-3" cx="139.14" cy="68.35" r="6.44"/><circle class="cls-3" cx="50.21" cy="58.27" r="4.02"/><circle class="cls-3" cx="75.59" cy="58.27" r="4.02"/><circle class="cls-3" cx="50.21" cy="58.27" r="4.02"/><circle class="cls-3" cx="101.15" cy="58.27" r="4.02"/><circle class="cls-3" cx="126.53" cy="58.27" r="4.02"/><circle class="cls-3" cx="24.58" cy="80.67" r="8.92"/><path class="cls-7" d="M35.82,116.92H13.16V100.17A10.58,10.58,0,0,1,23.74,89.59h1.51a10.58,10.58,0,0,1,10.58,10.58Z"/><rect class="cls-3" x="13.16" y="103.25" width="5.33" height="13.66"/><rect class="cls-3" x="30.49" y="103.25" width="5.33" height="13.66"/><rect class="cls-8" x="18.49" y="116.92" width="12" height="19.67"/></g></g></svg>