<svg xmlns="http://www.w3.org/2000/svg" viewBox="0 0 179.67 179.67"><defs><style>.cls-1{fill:#006cb5;}.cls-2{fill:#00507c;}.cls-3{fill:#fff;}.cls-4{fill:#db9b67;}.cls-5{fill:#4f8fcd;}.cls-6{fill:#3880ba;}.cls-7{fill:#ffe36c;}.cls-8{fill:#f6d330;}.cls-9{fill:#a2d0ea;}.cls-10{fill:#b2142f;}.cls-11{fill:#d38239;}.cls-12{fill:#bf7232;}.cls-13{fill:#d52339;}</style></defs><title>Ресурс 1</title><g id="Слой_2" data-name="Слой 2"><g id="Слой_1-2" data-name="Слой 1"><circle class="cls-1" cx="89.83" cy="89.83" r="89.83"/><path class="cls-2" d="M11.36,133.58a89.85,89.85,0,0,0,156.94,0Z"/><rect class="cls-3" x="79.21" y="70.58" width="74" height="70"/><polygon class="cls-4" points="90.21 57.58 143.21 57.58 153.21 70.58 90.21 70.58 90.21 57.58"/><rect class="cls-5" x="90.21" y="76.83" width="16.5" height="38.38"/><rect class="cls-6" x="98.46" y="76.83" width="8.25" height="38.38"/><rect class="cls-5" x="111.79" y="76.83" width="16.5" height="38.38"/><rect class="cls-6" x="120.04" y="76.83" width="8.25" height="38.38"/><rect class="cls-5" x="133.58" y="77.02" width="16.5" height="38.38"/><rect class="cls-6" x="141.83" y="77.02" width="8.25" height="38.38"/><rect class="cls-5" x="26.46" y="58.58" width="45.12" height="82"/><rect class="cls-3" x="26.46" y="58.58" width="21.56" height="82"/><path class="cls-5" d="M49.46,58.58h-23a23,23,0,0,1,46,0Z"/><rect class="cls-7" x="29.21" y="71.25" width="4.75" height="12.83"/><rect class="cls-6" x="29.21" y="71.25" width="9.5" height="12.83"/><rect class="cls-8" x="43.27" y="71.25" width="9.5" height="12.83"/><rect class="cls-8" x="56.25" y="71.25" width="9.5" height="12.83"/><rect class="cls-7" x="56.25" y="71.25" width="4.75" height="12.83"/><rect class="cls-5" x="29.21" y="71.25" width="4.75" height="12.83"/><rect class="cls-5" x="43.27" y="71.25" width="4.75" height="12.83"/><circle class="cls-3" cx="41.46" cy="46.83" r="5.5"/><rect class="cls-6" x="29.23" y="90.88" width="9.5" height="12.83"/><rect class="cls-8" x="43.29" y="90.88" width="9.5" height="12.83"/><rect class="cls-8" x="56.27" y="90.88" width="9.5" height="12.83"/><rect class="cls-7" x="56.27" y="90.88" width="4.75" height="12.83"/><rect class="cls-5" x="29.23" y="90.88" width="4.75" height="12.83"/><rect class="cls-5" x="43.29" y="90.88" width="4.75" height="12.83"/><rect class="cls-6" x="29.23" y="110.38" width="9.5" height="12.83"/><rect class="cls-8" x="43.29" y="110.38" width="9.5" height="12.83"/><rect class="cls-8" x="56.27" y="110.38" width="9.5" height="12.83"/><rect class="cls-7" x="56.27" y="110.38" width="4.75" height="12.83"/><rect class="cls-5" x="29.23" y="110.38" width="4.75" height="12.83"/><rect class="cls-5" x="43.29" y="110.38" width="4.75" height="12.83"/><polygon class="cls-3" points="69.29 88.06 64.21 97.17 64.21 108.58 69.21 108.58 69.29 88.06"/><polygon class="cls-9" points="89.17 88.06 94.21 97.17 94.21 108.58 89.29 108.58 89.17 88.06"/><rect class="cls-3" x="68.21" y="58.58" width="22" height="82"/><rect class="cls-9" x="79.21" y="58.58" width="11" height="82"/><polygon class="cls-10" points="68.21 42.58 68.21 58.58 90.21 58.58 90.21 42.58 79.21 16.58 68.21 42.58"/><rect class="cls-11" x="68.21" y="63.83" width="22" height="6.75"/><rect class="cls-11" x="68.21" y="76.83" width="6.75" height="6.75"/><rect class="cls-12" x="83.46" y="76.83" width="6.75" height="6.75"/><rect class="cls-11" x="68.21" y="89.46" width="6.75" height="6.75"/><rect class="cls-12" x="83.46" y="89.46" width="6.75" height="6.75"/><rect class="cls-11" x="68.21" y="108.46" width="22" height="6.75"/><rect class="cls-11" x="68.21" y="124.21" width="22" height="6.75"/><rect class="cls-12" x="79.21" y="63.83" width="11" height="6.75"/><rect class="cls-12" x="79.21" y="108.46" width="11" height="6.75"/><polygon class="cls-13" points="68.21 42.58 68.21 58.58 79.21 58.58 79.21 16.58 68.21 42.58"/><rect class="cls-5" x="90.21" y="118.71" width="63" height="21.88"/><rect class="cls-7" x="90.21" y="124.48" width="8.25" height="10.54"/><rect class="cls-8" x="98.46" y="124.48" width="8.25" height="10.54"/><rect class="cls-7" x="111.79" y="124.48" width="8.25" height="10.54"/><rect class="cls-8" x="120.04" y="124.48" width="8.25" height="10.54"/><rect class="cls-7" x="133.58" y="124.48" width="8.25" height="10.54"/><rect class="cls-8" x="141.83" y="124.48" width="8.25" height="10.54"/><rect class="cls-12" x="79.21" y="124.21" width="11" height="6.75"/></g></g></svg>