<svg xmlns="http://www.w3.org/2000/svg" viewBox="0 0 179.67 179.67"><defs><style>.cls-1{fill:#006cb5;}.cls-2{fill:#00507c;}.cls-3{fill:#f6d330;}.cls-4{fill:#4f8fcd;}.cls-5{fill:#fff;}.cls-6{fill:#d52339;}.cls-7{fill:#a2d0ea;}.cls-8{fill:#232323;}.cls-9{fill:#3c6b27;}.cls-10{fill:#497738;}.cls-11{fill:#5b8e46;}.cls-12{fill:#1d2816;}.cls-13{fill:#bf7232;}</style></defs><title>Ресурс 4</title><g id="Слой_2" data-name="Слой 2"><g id="Слой_1-2" data-name="Слой 1"><circle class="cls-1" cx="89.83" cy="89.83" r="89.83"/><path class="cls-2" d="M11.36,133.58a89.85,89.85,0,0,0,156.94,0Z"/><path class="cls-3" d="M77.8,70.79H65.72l-6,10.46,6,10.46H77.8l6-10.46ZM77,90.26H66.56l-5.2-9,5.2-9H77l5.2,9Z"/><circle class="cls-4" cx="60.41" cy="81.26" r="3.15"/><circle class="cls-4" cx="77.3" cy="71.4" r="3.15"/><circle class="cls-3" cx="66.16" cy="71.4" r="3.15"/><circle class="cls-3" cx="82.88" cy="81.26" r="3.15"/><circle class="cls-4" cx="66.16" cy="91.11" r="3.15"/><circle class="cls-3" cx="77.3" cy="91.11" r="3.15"/><polygon class="cls-5" points="73.61 90.22 73.61 106.63 74 108.23 75.05 109.88 77.11 110.36 78.62 109.88 80.08 108.84 80.63 107.23 80.63 101.92 80.46 90.22 73.61 90.22"/><path class="cls-4" d="M73.23,87.13v19.8a4,4,0,1,0,8.07,0V87.13Zm7.15,19.63a3.12,3.12,0,1,1-6.23,0V91.49h6.23Z"/><path class="cls-6" d="M75.21,96.68v10.1a2.06,2.06,0,1,0,4.12,0V96.68Z"/><polygon class="cls-5" points="84.76 90.22 84.76 106.63 85.15 108.23 86.2 109.88 88.26 110.36 89.77 109.88 91.24 108.84 91.78 107.23 91.78 101.92 91.61 90.22 84.76 90.22"/><path class="cls-4" d="M84.38,87.13v19.8a4,4,0,1,0,8.07,0V87.13Zm7.15,19.63a3.12,3.12,0,1,1-6.23,0V91.49h6.23Z"/><path class="cls-6" d="M86.36,96.68v10.1a2.06,2.06,0,1,0,4.12,0V96.68Z"/><polygon class="cls-5" points="95.63 90.22 95.63 106.63 96.02 108.23 97.07 109.88 99.13 110.36 100.64 109.88 102.11 108.84 102.65 107.23 102.65 101.92 102.48 90.22 95.63 90.22"/><path class="cls-4" d="M95.25,87.13v19.8a4,4,0,0,0,8.07,0V87.13Zm7.15,19.63a3.12,3.12,0,1,1-6.23,0V91.49h6.23Z"/><path class="cls-6" d="M97.23,96.68v10.1a2.06,2.06,0,1,0,4.12,0V96.68Z"/><rect class="cls-5" x="25.66" y="45.31" width="19.63" height="8.29" transform="translate(-24.58 39.57) rotate(-45)"/><rect class="cls-7" x="47.26" y="23.71" width="19.63" height="8.29" transform="translate(-2.98 48.52) rotate(-45)"/><path class="cls-7" d="M65.51,42.05a11,11,0,0,0-12-2.36L41.64,27.86,35.54,34,47.37,45.79a11,11,0,0,0,2.34,12.06l7.37-7.37,5.75,5.75,1.08-1.08L58.16,49.4Z"/><path class="cls-5" d="M63.18,55.86,38.41,31.09,35.54,34,47.37,45.79a11,11,0,0,0,2.34,12.06l7.37-7.37,5.75,5.75Z"/><path class="cls-5" d="M109.77,52.13c.55,0,10.49,2.7,10.49,2.7l-9.28-7Z"/><circle class="cls-4" cx="99.72" cy="44.55" r="15.22" transform="translate(-9.05 34.63) rotate(-18.86)"/><circle class="cls-5" cx="92" cy="41.17" r="4.58" transform="translate(-8.37 31.96) rotate(-18.86)"/><path class="cls-4" d="M101.6,57.87s23.68,14.28,22.91,13.65L104.38,55.25Z"/><path class="cls-4" d="M111.37,38s25.78,10,24.82,9.77l-25.19-6Z"/><polygon class="cls-3" points="128.88 17.56 131.13 22.14 136.19 22.88 132.53 26.44 133.39 31.47 128.88 29.09 124.36 31.47 125.22 26.44 121.56 22.88 126.62 22.14 128.88 17.56"/><polygon class="cls-3" points="44.98 69.25 43.27 69.35 42.39 70.82 41.76 69.22 40.09 68.84 41.42 67.75 41.27 66.05 42.71 66.97 44.29 66.3 43.86 67.96 44.98 69.25"/><polygon class="cls-3" points="81.54 23.85 78.76 20.71 74.6 21.23 76.72 17.61 74.95 13.81 79.04 14.71 82.11 11.85 82.52 16.02 86.18 18.05 82.34 19.73 81.54 23.85"/><rect class="cls-8" x="133.38" y="68.53" width="30.65" height="49.81" rx="5.92" ry="5.92"/><rect class="cls-7" x="136.56" y="71.66" width="24.41" height="34.74"/><circle class="cls-7" cx="148.71" cy="111.31" r="2.13"/><circle class="cls-9" cx="21.5" cy="109.27" r="11.76"/><circle class="cls-10" cx="33.26" cy="102.52" r="20.04"/><circle class="cls-11" cx="28.5" cy="90.63" r="12.61"/><path class="cls-12" d="M43.57,104.22a13.77,13.77,0,0,1-6.48,10.18c-.19-1.74-.43-3.48-.76-5.21-.36-1.89-3.25-1.09-2.89.8a61.55,61.55,0,0,1,.79,17.23,23.55,23.55,0,0,1-10.92-13.12c-.61-1.82-3.51-1-2.89.8A26.68,26.68,0,0,0,33.05,130a1.48,1.48,0,0,0,.81.19,62.24,62.24,0,0,1-8,22.67l.09.09L28,155a2.84,2.84,0,0,0,.49-.65,64.43,64.43,0,0,0,8.88-36.84,1.45,1.45,0,0,0,.81-.2,17,17,0,0,0,8.41-13.06C46.78,102.3,43.78,102.32,43.57,104.22Z"/><path class="cls-4" d="M33.26,133.58a62.58,62.58,0,0,1-7.44,19.27l.87.86,1,1L28,155a2.9,2.9,0,0,0,.48-.65,64.63,64.63,0,0,0,7.85-20.74Z"/><polygon class="cls-3" points="149.25 50.93 148.27 54.42 150.59 57.2 146.97 57.35 145.03 60.41 143.78 57.01 140.26 56.12 143.11 53.87 142.87 50.26 145.89 52.27 149.25 50.93"/><rect class="cls-7" x="98.5" y="123.46" width="11" height="20"/><rect class="cls-5" x="105.63" y="132.58" width="24.88" height="1.5"/><polygon class="cls-5" points="132.51 133.33 128.49 137.35 128.49 129.31 132.51 133.33"/><rect class="cls-3" x="45.41" y="132.71" width="24.88" height="1.5"/><polygon class="cls-3" points="43.4 133.46 47.42 129.44 47.42 137.48 43.4 133.46"/><rect class="cls-5" x="52.19" y="123.46" width="46.31" height="20"/><circle class="cls-4" cx="104" cy="133.33" r="3"/><path class="cls-13" d="M132.75,151.92l-4.84,4.73a25,25,0,0,0-6.7-2.73v-6.34h-9v6.34a22.69,22.69,0,0,0-6.3,2.72l-4.6-4.75-6,6.07,4.73,4.83a25.39,25.39,0,0,0-2.79,6.8h-7v9h6.93c.06.24.15.51.22.77a89.79,89.79,0,0,0,9.7-1.34,10.87,10.87,0,1,1,20.61-6.69,89.59,89.59,0,0,0,8.41-4.47,20.4,20.4,0,0,0-2-4.07l4.69-4.76Z"/><rect class="cls-5" x="141.59" y="76.17" width="14.33" height="3.73"/><rect class="cls-5" x="141.59" y="82.54" width="14.33" height="3.73"/><rect class="cls-5" x="141.59" y="88.91" width="14.33" height="3.73"/></g></g></svg>