<svg xmlns="http://www.w3.org/2000/svg" viewBox="0 0 179.67 179.67"><defs><style>.cls-1{fill:#006cb5;}.cls-2{fill:#00507c;}.cls-3{fill:#fff;}.cls-4{fill:#15223f;}.cls-5{fill:#ffe36c;}.cls-6{fill:#232323;}.cls-7{fill:#4f8fcd;}.cls-8{fill:#8cbae0;}.cls-9{fill:#a2d0ea;}</style></defs><title>Ресурс 7</title><g id="Слой_2" data-name="Слой 2"><g id="Слой_1-2" data-name="Слой 1"><circle class="cls-1" cx="89.83" cy="89.83" r="89.83"/><path class="cls-2" d="M11.36,133.58a89.85,89.85,0,0,0,156.94,0Z"/><path class="cls-3" d="M8.69,58.13A27.36,27.36,0,0,0,40,66.42a15.88,15.88,0,0,0,8.59,4.42A15.92,15.92,0,1,0,66.93,52.38a15.94,15.94,0,0,0-9.59-11.94A27.37,27.37,0,0,0,42.72,16.72,86.76,86.76,0,0,0,8.69,58.13Z"/><polygon class="cls-4" points="51.54 137.25 30.54 137.25 34.04 53.58 48.04 53.58 51.54 137.25"/><polyline class="cls-4" points="57.88 134.93 60.07 82.47 68.85 82.47 71.05 134.93"/><polygon class="cls-5" points="69.63 100.98 59.3 100.98 59.6 93.67 69.32 93.67 69.63 100.98"/><polygon class="cls-5" points="70.19 114.31 58.74 114.31 59.09 106.07 69.84 106.07 70.19 114.31"/><polygon class="cls-5" points="49.28 83.41 32.81 83.41 33.3 71.75 48.79 71.75 49.28 83.41"/><polygon class="cls-5" points="50.17 104.66 31.92 104.66 32.47 91.53 49.62 91.53 50.17 104.66"/><polygon class="cls-5" points="49.28 83.41 32.81 83.41 33.3 71.75 48.79 71.75 49.28 83.41"/><polygon class="cls-5" points="50.17 104.66 31.92 104.66 32.47 91.53 49.62 91.53 50.17 104.66"/><path class="cls-6" d="M126.71,79.07A2.92,2.92,0,0,0,123.79,82a2.89,2.89,0,0,0,.4,1.46L108.8,98.85l1.06,1.06L122.79,87l-10,17.33,1.3.75,10-17.38-5.33,18.9,1.44.41,6.23-22.09.25,0a2.92,2.92,0,1,0,0-5.84Z"/><path class="cls-7" d="M155.15,81.35a4.6,4.6,0,0,0-.12.74c0,2-1.11,3.26-2.87,3.35s-3-1.23-3.21-3.21a18.49,18.49,0,0,0-1-5.43C143.5,67.14,136,61.59,125.4,60.31a15.38,15.38,0,0,0-3.48.3c-.51.06-1,.22-1.53.29a3,3,0,0,1-3.57-2.4,3.16,3.16,0,0,1,2.44-3.5c.49-.14,1-.31,1.45-.46l2.06-.28c1.33,0,2.68,0,4,.13,10.85,1.31,19,7,24.72,16,1.41,2.22,2.13,4.87,3.17,7.33Z"/><path class="cls-7" d="M124.12,65.55a19.24,19.24,0,0,1,10.05,2.81,20.33,20.33,0,0,1,9.3,11.57,3.05,3.05,0,0,1-1.62,4,2.9,2.9,0,0,1-4-1.85,15.35,15.35,0,0,0-7-8.66,14.2,14.2,0,0,0-6.17-1.82,8.56,8.56,0,0,1-1-.11,3,3,0,0,1-2.59-3.09C121.12,67,122.2,65.84,124.12,65.55Z"/><rect class="cls-3" x="86.02" y="126.92" width="55.62" height="12.67"/><rect class="cls-8" x="113.83" y="126.92" width="27.81" height="12.67"/><rect class="cls-3" x="109.33" y="114.31" width="8.84" height="12.61"/><rect class="cls-8" x="113.83" y="109.58" width="4.34" height="17.33"/><path class="cls-9" d="M120.65,93.74l21.94,13.94A26,26,0,1,1,98.71,79.81l.1-.16Z"/><ellipse class="cls-3" cx="104.25" cy="97.95" rx="4.54" ry="8.12" transform="translate(-28 43.44) rotate(-20.82)"/></g></g></svg>