<svg xmlns="http://www.w3.org/2000/svg" viewBox="0 0 179.67 179.67"><defs><style>.cls-1{fill:#006cb5;}.cls-2{fill:#00507c;}.cls-3{fill:#d38239;}.cls-4{fill:#232323;}.cls-5{fill:#fff;}.cls-6{fill:#15223f;}.cls-7{fill:#bf7232;}</style></defs><title>Ресурс 5</title><g id="Слой_2" data-name="Слой 2"><g id="Слой_1-2" data-name="Слой 1"><circle class="cls-1" cx="89.83" cy="89.83" r="89.83"/><path class="cls-2" d="M11.36,133.58a89.85,89.85,0,0,0,156.94,0Z"/><rect class="cls-3" x="78.13" y="27.08" width="65" height="50.55"/><path class="cls-4" d="M53.34,74.58H44A10.5,10.5,0,0,0,33.21,84.85v25.73h7v27h17v-47h7V84.85C64.21,79,59.18,74.58,53.34,74.58Z"/><circle class="cls-5" cx="48.79" cy="62.26" r="12.01"/><rect class="cls-5" x="33.19" y="92.66" width="7.04" height="18.39"/><rect class="cls-5" x="62.78" y="84.87" width="7.18" height="18.39" transform="translate(-27.69 160.43) rotate(-90)"/><rect class="cls-5" x="46.61" y="75.56" width="4.12" height="4.12" transform="translate(69.14 -11.68) rotate(45)"/><polygon class="cls-5" points="48.67 97.83 45.75 94.92 48.67 80.92 51.58 94.92 48.67 97.83"/><rect class="cls-4" x="75.58" y="64.91" width="0.75" height="28.97" transform="translate(26.76 -18.85) rotate(17.13)"/><rect class="cls-4" x="82.63" y="32.1" width="56" height="40.5"/><rect class="cls-3" x="77.6" y="110.41" width="69.34" height="35.18"/><rect class="cls-6" x="72.03" y="104.85" width="81.37" height="9.03"/><rect class="cls-7" x="112.72" y="113.88" width="34.22" height="31.7"/><rect class="cls-4" x="112.72" y="104.85" width="40.68" height="9.03"/><path class="cls-5" d="M92.19,51.77c0-4.69,8.1-8.37,18.43-8.37s18.43,3.67,18.43,8.37-8.1,8.37-18.43,8.37S92.19,56.46,92.19,51.77Zm34.77,0c0-3-6.71-6.27-16.34-6.27S94.28,48.8,94.28,51.77,101,58,110.63,58,127,54.73,127,51.77Z"/><path class="cls-5" d="M97.59,38.73c3.32-3.32,11.64-.19,18.95,7.12S127,61.48,123.66,64.8,112,65,104.71,57.68,94.27,42,97.59,38.73Zm24.59,24.59c2.1-2.1-.31-9.18-7.12-16s-13.89-9.22-16-7.12.31,9.18,7.12,16S120.08,65.42,122.18,63.32Z"/><path class="cls-5" d="M97.59,64.8c-3.32-3.32-.19-11.64,7.12-18.95s15.63-10.44,18.95-7.12.19,11.64-7.12,18.95S100.91,68.12,97.59,64.8Zm24.59-24.59c-2.1-2.1-9.18.31-16,7.12s-9.22,13.89-7.12,16,9.18-.31,16-7.12S124.28,42.31,122.18,40.21Z"/><circle class="cls-5" cx="110.63" cy="51.77" r="2.09"/></g></g></svg>