<?xml version="1.0" encoding="utf-8"?>
<!-- Generator: Adobe Illustrator 20.1.0, SVG Export Plug-In . SVG Version: 6.00 Build 0)  -->
<svg version="1.1" id="Слой_1" xmlns="http://www.w3.org/2000/svg" xmlns:xlink="http://www.w3.org/1999/xlink" x="0px" y="0px"
	 viewBox="0 0 24 24" style="enable-background:new 0 0 24 24;" xml:space="preserve">
<style type="text/css">
	.st0{fill:#D62976;}
	.st1{fill:#FFFFFF;}
</style>
<title  id="simpleicons-instagram-icon">Instagram icon</title>
<rect y="0" class="st0" width="24" height="24"/>
<path class="st1" d="M12,2.6c-2.5,0-2.8,0-3.9,0.1c-0.9,0-1.6,0.2-2.2,0.4c-0.6,0.2-1.1,0.5-1.6,1c-0.5,0.5-0.9,1-1.1,1.7
	C3,6.5,2.8,7.1,2.7,8.1c0,1,0,1.3,0,3.9s0,2.8,0.1,3.9c0.1,1,0.2,1.7,0.4,2.2c0.2,0.7,0.5,1.2,1,1.7c0.5,0.5,1,0.9,1.6,1.1
	c0.6,0.3,1.3,0.4,2.2,0.4c1,0.1,1.3,0.1,3.9,0.1s2.8,0,3.9-0.1c1-0.1,1.6-0.2,2.2-0.4c0.6-0.3,1.1-0.6,1.6-1.1c0.5-0.5,0.9-1,1-1.6
	c0.3-0.6,0.4-1.3,0.4-2.2c0.1-1,0.1-1.3,0.1-3.9s0-2.8-0.1-3.9S21,6.5,20.7,6c-0.2-0.8-0.5-1.3-1-1.8s-1-0.9-1.6-1.1
	c-0.6-0.3-1.3-0.4-2.2-0.4C14.8,2.6,14.5,2.6,12,2.6z M12,4.3c2.5,0,2.7,0,3.8,0.1c0.9,0,1.4,0.2,1.7,0.3c0.4,0.2,0.8,0.3,1,0.7
	C18.9,5.8,19,6,19.2,6.6c0.1,0.3,0.3,0.9,0.3,1.7c0.1,1,0.1,1.3,0.1,3.8s0,2.8-0.1,3.8c-0.1,0.9-0.2,1.4-0.3,1.7
	c-0.2,0.4-0.3,0.8-0.7,1.1s-0.6,0.5-1,0.7c-0.3,0.1-0.9,0.3-1.7,0.3c-1,0.1-1.3,0.1-3.8,0.1s-2.7,0-3.8-0.1
	c-0.9-0.1-1.4-0.2-1.7-0.3c-0.4-0.2-0.8-0.3-1-0.7C5.1,18.3,5,18,4.8,17.5c-0.1-0.3-0.3-0.9-0.3-1.7c0-0.9-0.1-1.3-0.1-3.8
	s0-2.8,0.1-3.8s0.2-1.4,0.3-1.7C4.9,6,5.1,5.7,5.4,5.4C5.7,5,6,4.8,6.4,4.7c0.3-0.2,0.8-0.3,1.7-0.3C9.2,4.2,9.5,4.2,12,4.3
	C12,4.2,12,4.3,12,4.3z M12,7.2c-2.7,0-4.8,2.1-4.8,4.8s2.1,4.8,4.8,4.8s4.8-2.1,4.8-4.8S14.7,7.2,12,7.2z M12,15
	c-1.7,0-3.1-1.4-3.1-3.1s1.4-3.1,3.1-3.1s3.1,1.4,3.1,3.1S13.7,15,12,15z M18.1,7c0,0.6-0.5,1.1-1.1,1.1c-0.6,0-1.1-0.5-1.1-1.1
	s0.5-1.1,1.1-1.1C17.6,5.9,18.1,6.4,18.1,7z"/>
</svg>
