<?xml version="1.0" encoding="utf-8"?>
<!-- Generator: Adobe Illustrator 20.1.0, SVG Export Plug-In . SVG Version: 6.00 Build 0)  -->
<svg version="1.1" id="Слой_1" xmlns="http://www.w3.org/2000/svg" xmlns:xlink="http://www.w3.org/1999/xlink" x="0px" y="0px"
	 viewBox="0 0 24 24" style="enable-background:new 0 0 24 24;" xml:space="preserve">
<style type="text/css">
	.st0{fill:#4D7198;}
	.st1{fill:#FFFFFF;}
</style>
<title  id="simpleicons-vk-icon">VK icon</title>
<rect y="0" class="st0" width="24" height="24"/>
<path class="st1" d="M11.7,17.5h1.1c0,0,0.3,0,0.6-0.2c0.2-0.2,0.2-0.5,0.2-0.5s0-1.6,0.7-1.8s1.6,1.6,2.6,2.2
	c0.7,0.5,1.3,0.4,1.3,0.4h2.6c0,0,1.4-0.1,0.7-1.1c-0.1-0.1-0.4-0.8-2-2.3c-1.6-1.6-1.4-1.3,0.6-3.9c1.2-1.6,1.7-2.6,1.6-3
	C21.5,6.9,20.6,7,20.6,7h-2.9c0,0-0.2,0-0.4,0.1c-0.2,0.1-0.2,0.3-0.2,0.3S16.7,8.6,16,9.7c-1.3,2.2-1.9,2.4-2,2.2
	c-0.5-0.3-0.3-1.3-0.3-2c0-2.1,0.3-3.1-0.7-3.3c-0.3-0.1-0.6-0.2-1.4-0.2c-1.1,0-2,0-2.5,0.2C8.9,6.8,8.5,7.1,8.7,7.2
	c0.2,0,0.7,0.1,0.9,0.4C9.9,8,9.9,8.9,9.9,8.9s0.2,2.5-0.4,2.9c-0.4,0.2-1-0.2-2.1-2.3c-0.7-1-1.1-2.1-1.1-2.1S6.2,7.1,6.1,7
	C5.8,6.9,5.6,6.9,5.6,6.9H2.8c0,0-0.4,0-0.6,0.2s0,0.5,0,0.5s2.2,5.2,4.7,7.8C9.2,17.7,11.8,17.5,11.7,17.5
	C11.8,17.5,11.7,17.5,11.7,17.5z"/>
</svg>
