<svg xmlns="http://www.w3.org/2000/svg" viewBox="0 0 179.67 179.67"><defs><style>.cls-1{fill:#006cb5;}.cls-2{fill:#00507c;}.cls-3{fill:#ffe36c;}.cls-4{fill:#a2d0ea;}.cls-5{fill:#232323;}</style></defs><title>Ресурс 6</title><g id="Слой_2" data-name="Слой 2"><g id="Слой_1-2" data-name="Слой 1"><circle class="cls-1" cx="89.83" cy="89.83" r="89.83"/><path class="cls-2" d="M11.36,133.58a89.85,89.85,0,0,0,156.94,0Z"/><path class="cls-3" d="M152.45,64.14l4.06-10.74-12.36-4.69a4.56,4.56,0,0,0-.28.51c-1.38,3.66-2.75,7.32-4.14,11a3.87,3.87,0,0,1-.76,1.29,5.53,5.53,0,0,1-5.68,1c-1.67-.77-1.85-2.32-.41-3.45a5.46,5.46,0,0,1,6.07-.14l.51.37c.3-.76.59-1.47.86-2.19,1-2.63,2-5.26,3-7.88.21-.55.17-.88-.44-1.1-3.78-1.4-7.55-2.82-11.32-4.24a3.4,3.4,0,0,0-.4-.09,4.82,4.82,0,0,0-.28.53c-1.37,3.63-2.82,7.23-4.07,10.9-.95,2.79-5.36,3.41-7.15,2a1.75,1.75,0,0,1,.06-2.91,4.9,4.9,0,0,1,4.89-.88,18.73,18.73,0,0,1,1.89.82L131.86,40l26.58,10.06c-.5,1.32-1,2.56-1.44,3.81-1.38,3.69-2.85,7.35-4.12,11.08-.94,2.79-5.2,3.48-7.05,2.17a1.77,1.77,0,0,1-.12-3,5.39,5.39,0,0,1,5.89-.52Zm-21.06-21,12.36,4.67L144,47,131.7,42.33Zm13,4.6.13.35,12.26,4.64.26-.84c-4-1.51-7.92-3-11.86-4.47C144.94,47.39,144.61,47.66,144.34,47.78Z"/><path class="cls-3" d="M101,40.36l1.57-17,15.71,1.45c-.08,1-.15,2-.24,2.94-.44,4.82-.92,9.63-1.3,14.46A4.59,4.59,0,0,1,114.54,46a5.47,5.47,0,0,1-4.25,1,2,2,0,0,1-1.36-3.14,5.79,5.79,0,0,1,6.25-2.41c.25.07.5.16.89.29L117.24,29,102.9,27.64a6.93,6.93,0,0,0-.17.78q-.56,6.11-1.11,12.23a5.17,5.17,0,0,1-6.5,4.87c-1.63-.41-2.14-1.67-1.26-3.15a5.82,5.82,0,0,1,6.62-2.24Z"/><path class="cls-3" d="M68.36,72.21c-2.53-5.89-5-11.71-7.53-17.54,0-.09,0-.23.08-.5.32.13.69.16.85.36,1.75,2.13,4.19,3,6.72,3.67a11.43,11.43,0,0,1,4.41,1.89,6.38,6.38,0,0,1,1.84,7.39c-.13-.82-.24-1.54-.37-2.25a5.5,5.5,0,0,0-4.21-4.73c-2.07-.54-4.2-.85-6.48-1.3L66,64.52c1.12,2.54,2.25,5.08,3.35,7.62a5.7,5.7,0,0,1-1.29,6.74,8.43,8.43,0,0,1-4.37,2.49c-2,.38-3.3-1-2.69-2.89a8.46,8.46,0,0,1,6.55-6.09Z"/><path class="cls-3" d="M55.67,48.16q0-5.09,0-10.19c0-3.7,0-7.4,0-11.11a4.07,4.07,0,0,1,4.22-4.35c1.66,0,2.36,1.19,1.59,2.66-.88,1.69-2.89,2.51-5.22,2.1v9.35c3.42-1.6,4.49-3.83,3.81-8.11a6.25,6.25,0,0,1,1,4.2,39.7,39.7,0,0,0,0,5.43,5.82,5.82,0,0,1-2,5.2,8.31,8.31,0,0,0-2.75,4.18,3.37,3.37,0,0,1-.39.72Zm4.71-9.57c-1.73,1.58-3.63,2.84-4,5.55C58.07,42.4,60.43,41.49,60.39,38.59Zm-4,1.77c1.73-1.58,3.9-2.56,4-5.38C58.62,36.5,56.8,37.75,56.41,40.36Z"/><path class="cls-3" d="M28.32,59.68,39.06,43.5l.25.06a2.33,2.33,0,0,1,0,.69,7.57,7.57,0,0,0,.05,4.58,5.27,5.27,0,0,1-.87,5c-1.29,1.71-2.33,3.61-3.58,5.36a7,7,0,0,1-2,1.69c.91-1.16,2.06-2.24,1.91-3.81a36.42,36.42,0,0,0-.95-4.4h-.3c-1.06,1.57-2.12,3.13-3.17,4.71-.71,1.07-1.38,2.16-2.09,3.23a4.08,4.08,0,0,1-6.05.21,1.38,1.38,0,0,1,.32-2.1,4.32,4.32,0,0,1,5.07.34C27.86,59.21,28,59.4,28.32,59.68ZM37.55,47.2c-.74,1.34-.55,4.2.37,6.23C39,51.87,38.94,50.36,37.55,47.2Zm-1.57,9c1.46-2.14.4-4.13-.34-6.4C34.65,52.2,35.64,54.2,36,56.25Z"/><path class="cls-3" d="M108.15,71.7c-.94-6.21-1.87-12.37-2.79-18.54,0-.11.07-.23.25-.36a7,7,0,0,1,.26.9q1.52,9.66,3,19.32a5.19,5.19,0,0,1-2.29,5.25,2.31,2.31,0,0,1-3.79-2.44C103.24,73,105.15,71.55,108.15,71.7Z"/><path class="cls-3" d="M84.12,37.47c1.37-.9.86-2.37,1.25-3.58.65-.29.73.17.83.68q1.7,9.38,3.41,18.75l.65,3.61c-.94.38-.89-.33-1-.8-.74-4-1.45-8-2.18-12,0-.19-.1-.38-.18-.72-.42.79-.73,1.46-1.11,2.09a2.14,2.14,0,0,1-3.09.74,2.75,2.75,0,0,1-.9-3.55,1.61,1.61,0,0,1,2.44-.13,10.09,10.09,0,0,1,.89,1c1.37-.72,1.65-3.36.61-6-.37.62-.67,1.21-1,1.76a2.47,2.47,0,0,1-3,1A3,3,0,0,1,80.5,37a1.58,1.58,0,0,1,2.58-.59A11.28,11.28,0,0,1,84.12,37.47Z"/><rect class="cls-4" x="58" y="118.39" width="68.45" height="3.31"/><rect class="cls-5" x="27.94" y="95.73" width="9.34" height="48.63"/><rect class="cls-5" x="39.31" y="95.73" width="9.34" height="48.63"/><rect class="cls-5" x="50.69" y="95.73" width="9.34" height="48.63"/><rect class="cls-5" x="121.78" y="95.73" width="9.34" height="48.63"/><rect class="cls-5" x="133.15" y="95.73" width="9.34" height="48.63"/><rect class="cls-5" x="144.53" y="95.73" width="9.34" height="48.63"/><rect class="cls-4" x="27.94" y="133.62" width="9.34" height="10.73"/><rect class="cls-4" x="39.31" y="133.62" width="9.34" height="10.73"/><rect class="cls-4" x="50.69" y="133.62" width="9.34" height="10.73"/><rect class="cls-4" x="121.78" y="133.62" width="9.34" height="10.73"/><rect class="cls-4" x="133.15" y="133.62" width="9.34" height="10.73"/><rect class="cls-4" x="144.53" y="133.62" width="9.34" height="10.73"/></g></g></svg>