<?xml version="1.0" encoding="utf-8"?>
<!-- Generator: Adobe Illustrator 20.1.0, SVG Export Plug-In . SVG Version: 6.00 Build 0)  -->
<svg version="1.1" xmlns="http://www.w3.org/2000/svg" xmlns:xlink="http://www.w3.org/1999/xlink" x="0px" y="0px"
	 viewBox="0 0 210 120" style="enable-background:new 0 0 210 120;" xml:space="preserve">
<style type="text/css">
	.st0{fill:#003193;}
	.st1{fill:#DA251C;}
	.st2{font-family:'OpenSans-Regular';}
	.st3{font-size:88.5669px;}
</style>
<g id="Слой_2">
</g>
<g id="logo">
	<g id="simbol">
		<path class="st0" d="M134.6,51c0-8.7,0-17.4,0.1-26.1c8.8,1,17.2,5.2,23.1,11.8c5.2,5.8,8.5,13.4,8.9,21.2
			c0.4,6.9-1.5,13.8-5.2,19.6c-4.7,7.5-12.2,13.2-20.7,15.8c0,8.4,0,16.8,0,25.2c-0.3-0.1-0.5-0.3-0.8-0.5
			c-5.1-5.2-10.3-10.3-15.3-15.5c3.3,0,6.5,0,9.8,0.1c0-5.1,0-10.2,0-15.3c6.8-0.7,13.3-4,18-9c3.8-4.1,6.4-9.4,7-15
			c0.6-6.6-1-13.5-4.7-19.1c-3.3-5-8.4-8.6-14-10.6c-0.1,7.9,0.1,15.7-0.1,23.6c-6.3-0.1-12.6-0.1-18.9-0.1c0-2,0-4.1,0-6.1
			C126,51,130.3,51,134.6,51z"/>
		<path class="st1" d="M121.8,0.8c0.3,0.2,0.6,0.5,0.9,0.7c5.1,5.1,10.2,10.2,15.3,15.3c-3.3,0-6.7,0-10,0c0,5.1,0,10.2,0,15.2
			c-6.9,0.7-13.5,4.1-18.2,9.3c-3.8,4.2-6.3,9.6-6.7,15.2c-0.4,6.6,1.2,13.4,5,18.8c3.3,4.8,8.3,8.3,13.7,10.2c0-7.8,0-15.6,0-23.4
			c6.3,0,12.6-0.1,19,0.1c0,2,0,4,0,6c-4.3,0-8.6,0-12.8,0c0.1,8.7-0.2,17.4,0,26c-9.2-0.9-17.9-5.5-23.9-12.6
			c-4.6-5.4-7.5-12.2-8-19.2c-0.8-8.6,2-17.3,7.4-24c4.7-5.9,11.2-10.3,18.4-12.5C121.8,17.7,121.8,9.2,121.8,0.8z"/>
	</g>
	<text transform="matrix(1.2797 0 0 1 30.92 85.6211)" class="st0 st2 st3">4</text>
</g>
</svg>
