<?xml version="1.0" encoding="UTF-8" ?>
<!DOCTYPE svg PUBLIC "-//W3C//DTD SVG 1.1//EN" "http://www.w3.org/Graphics/SVG/1.1/DTD/svg11.dtd">
<svg width="1050pt" height="602pt" viewBox="0 0 1050 602" version="1.1" xmlns="http://www.w3.org/2000/svg">
<g id="#9f453b3e">
<path fill="#9f453b" opacity="0.24" d=" M 645.00 33.02 C 646.25 32.57 647.53 32.14 648.90 32.20 C 687.61 32.17 726.32 32.03 765.02 31.99 C 766.33 31.91 768.39 31.95 767.97 33.87 C 768.00 159.29 767.97 284.72 767.98 410.14 C 768.35 412.49 765.37 411.79 764.00 412.01 C 742.77 411.77 721.51 412.37 700.30 411.74 C 722.66 411.13 745.04 411.59 767.41 411.35 C 767.41 285.09 767.47 158.83 767.38 32.57 C 726.88 32.57 686.38 32.72 645.89 32.76 C 645.21 36.33 644.73 39.93 644.01 43.49 C 643.92 39.96 645.35 36.57 645.00 33.02 Z" />
<path fill="#9f453b" opacity="0.24" d=" M 582.48 36.36 C 582.51 36.42 582.56 36.52 582.58 36.57 C 582.56 36.52 582.51 36.42 582.48 36.36 Z" />
<path fill="#9f453b" opacity="0.24" d=" M 584.52 40.37 C 584.55 40.42 584.60 40.52 584.63 40.57 C 584.60 40.52 584.55 40.42 584.52 40.37 Z" />
<path fill="#9f453b" opacity="0.24" d=" M 585.51 42.28 C 585.54 42.33 585.59 42.45 585.62 42.50 C 585.59 42.45 585.54 42.33 585.51 42.28 Z" />
<path fill="#9f453b" opacity="0.24" d=" M 641.91 56.29 C 642.28 52.12 642.83 47.89 643.95 43.85 C 643.37 48.01 642.76 52.17 641.91 56.29 Z" />
<path fill="#9f453b" opacity="0.24" d=" M 423.48 46.37 C 423.50 46.42 423.55 46.52 423.58 46.57 C 423.55 46.52 423.50 46.42 423.48 46.37 Z" />
<path fill="#9f453b" opacity="0.24" d=" M 587.52 46.28 C 587.55 46.33 587.61 46.44 587.63 46.49 C 587.61 46.44 587.55 46.33 587.52 46.28 Z" />
<path fill="#9f453b" opacity="0.24" d=" M 589.65 50.39 C 589.68 50.44 589.73 50.53 589.75 50.58 C 589.73 50.53 589.68 50.44 589.65 50.39 Z" />
<path fill="#9f453b" opacity="0.24" d=" M 592.24 55.63 C 594.09 58.37 595.54 61.35 596.78 64.41 C 595.06 61.59 593.44 58.71 592.24 55.63 Z" />
<path fill="#9f453b" opacity="0.24" d=" M 429.60 59.31 C 429.62 59.36 429.67 59.46 429.69 59.51 C 429.67 59.46 429.62 59.36 429.60 59.31 Z" />
<path fill="#9f453b" opacity="0.24" d=" M 640.22 67.86 C 639.06 66.99 639.19 63.82 641.00 64.11 C 641.21 65.42 640.73 66.68 640.22 67.86 Z" />
<path fill="#9f453b" opacity="0.24" d=" M 432.53 65.37 C 432.55 65.42 432.60 65.51 432.62 65.56 C 432.60 65.51 432.55 65.42 432.53 65.37 Z" />
<path fill="#9f453b" opacity="0.24" d=" M 434.01 68.66 C 436.05 72.02 437.76 75.60 439.04 79.32 C 437.06 75.92 435.42 72.34 434.01 68.66 Z" />
<path fill="#9f453b" opacity="0.24" d=" M 638.05 80.57 C 638.34 76.88 638.84 73.20 639.73 69.60 C 639.29 73.28 638.87 76.96 638.05 80.57 Z" />
<path fill="#9f453b" opacity="0.24" d=" M 471.15 86.00 C 472.06 81.21 472.51 76.32 473.87 71.63 C 471.21 89.29 468.13 106.90 464.98 124.48 C 466.64 111.62 469.18 98.84 471.15 86.00 Z" />
<path fill="#9f453b" opacity="0.24" d=" M 606.43 83.38 C 606.46 83.44 606.52 83.55 606.54 83.60 C 606.52 83.55 606.46 83.44 606.43 83.38 Z" />
<path fill="#9f453b" opacity="0.24" d=" M 607.46 85.39 C 607.49 85.45 607.54 85.55 607.57 85.60 C 607.54 85.55 607.49 85.45 607.46 85.39 Z" />
<path fill="#9f453b" opacity="0.24" d=" M 442.44 86.35 C 442.47 86.41 442.51 86.51 442.54 86.56 C 442.51 86.51 442.47 86.41 442.44 86.35 Z" />
<path fill="#9f453b" opacity="0.24" d=" M 443.00 87.65 C 444.70 90.40 446.02 93.38 447.12 96.42 C 445.55 93.59 444.17 90.66 443.00 87.65 Z" />
<path fill="#9f453b" opacity="0.24" d=" M 610.55 91.45 C 610.58 91.51 610.64 91.62 610.67 91.67 C 610.64 91.62 610.58 91.51 610.55 91.45 Z" />
<path fill="#9f453b" opacity="0.24" d=" M 611.54 93.37 C 611.56 93.42 611.62 93.52 611.64 93.58 C 611.62 93.52 611.56 93.42 611.54 93.37 Z" />
<path fill="#9f453b" opacity="0.24" d=" M 626.59 149.72 C 629.94 131.12 632.17 112.31 635.91 93.79 C 632.87 114.41 629.50 135.00 625.99 155.54 C 626.02 153.58 626.21 151.64 626.59 149.72 Z" />
<path fill="#9f453b" opacity="0.24" d=" M 447.64 97.40 C 447.67 97.45 447.72 97.55 447.75 97.61 C 447.72 97.55 447.67 97.45 447.64 97.40 Z" />
<path fill="#9f453b" opacity="0.24" d=" M 613.57 97.44 C 613.59 97.49 613.65 97.60 613.67 97.65 C 613.65 97.60 613.59 97.49 613.57 97.44 Z" />
<path fill="#9f453b" opacity="0.24" d=" M 448.61 99.35 C 448.63 99.41 448.69 99.52 448.71 99.57 C 448.69 99.52 448.63 99.41 448.61 99.35 Z" />
<path fill="#9f453b" opacity="0.24" d=" M 614.57 99.36 C 614.60 99.41 614.65 99.51 614.67 99.56 C 614.65 99.51 614.60 99.41 614.57 99.36 Z" />
<path fill="#9f453b" opacity="0.24" d=" M 449.56 101.35 C 449.59 101.40 449.64 101.51 449.67 101.57 C 449.64 101.51 449.59 101.40 449.56 101.35 Z" />
<path fill="#9f453b" opacity="0.24" d=" M 617.58 105.33 C 617.60 105.38 617.65 105.48 617.68 105.53 C 617.65 105.48 617.60 105.38 617.58 105.33 Z" />
<path fill="#9f453b" opacity="0.24" d=" M 618.57 107.29 C 618.59 107.34 618.65 107.45 618.67 107.50 C 618.65 107.45 618.59 107.34 618.57 107.29 Z" />
<path fill="#9f453b" opacity="0.24" d=" M 622.63 115.31 C 622.65 115.35 622.69 115.44 622.71 115.49 C 622.69 115.44 622.65 115.35 622.63 115.31 Z" />
<path fill="#9f453b" opacity="0.24" d=" M 621.11 130.08 C 621.52 125.94 622.24 121.83 623.04 117.75 C 622.61 121.88 622.15 126.05 621.11 130.08 Z" />
<path fill="#9f453b" opacity="0.24" d=" M 459.00 160.52 C 459.06 156.90 459.81 153.35 460.80 149.89 C 460.32 153.45 459.75 157.00 459.00 160.52 Z" />
<path fill="#9f453b" opacity="0.24" d=" M 447.82 166.71 C 447.59 164.78 447.99 162.88 448.79 161.12 C 449.79 162.60 449.70 166.22 447.82 166.71 Z" />
<path fill="#9f453b" opacity="0.24" d=" M 454.64 184.52 C 455.82 178.91 456.24 173.13 457.75 167.59 C 454.18 191.23 450.07 214.80 445.93 238.34 C 448.43 220.35 451.83 202.48 454.64 184.52 Z" />
<path fill="#9f453b" opacity="0.24" d=" M 622.29 179.00 C 621.09 177.51 621.30 176.53 622.92 176.06 C 623.05 177.11 622.84 178.09 622.29 179.00 Z" />
<path fill="#9f453b" opacity="0.24" d=" M 440.15 216.41 C 441.24 208.14 442.54 199.89 444.05 191.69 C 443.12 199.96 441.80 208.25 440.15 216.41 Z" />
<path fill="#9f453b" opacity="0.24" d=" M 619.19 198.87 C 618.23 197.70 618.06 194.16 620.01 194.21 C 620.31 195.82 619.81 197.39 619.19 198.87 Z" />
<path fill="#9f453b" opacity="0.24" d=" M 614.46 225.13 C 615.78 218.37 616.45 211.47 618.05 204.78 C 615.01 225.73 611.55 246.62 608.01 267.49 C 609.60 253.31 612.52 239.28 614.46 225.13 Z" />
<path fill="#9f453b" opacity="0.24" d=" M 604.12 236.07 C 604.49 232.46 605.08 228.89 605.82 225.34 C 605.49 228.95 605.01 232.56 604.12 236.07 Z" />
<path fill="#9f453b" opacity="0.24" d=" M 429.16 285.13 C 429.70 280.97 430.23 276.81 431.15 272.71 C 430.63 276.87 430.13 281.05 429.16 285.13 Z" />
<path fill="#9f453b" opacity="0.24" d=" M 427.09 298.13 C 427.52 293.99 428.20 289.88 429.05 285.80 C 428.66 289.94 428.16 294.11 427.09 298.13 Z" />
<path fill="#9f453b" opacity="0.24" d=" M 414.00 380.21 C 417.63 354.96 421.86 329.79 426.03 304.63 C 425.65 310.76 424.10 316.75 423.45 322.86 C 420.16 341.95 417.61 361.17 414.00 380.21 Z" />
<path fill="#9f453b" opacity="0.24" d=" M 587.14 342.15 C 587.52 338.54 588.10 334.96 588.81 331.41 C 588.39 335.00 588.14 338.65 587.14 342.15 Z" />
<path fill="#9f453b" opacity="0.24" d=" M 433.02 334.48 C 435.21 338.00 437.16 341.65 438.93 345.40 C 436.50 342.04 434.68 338.27 433.02 334.48 Z" />
<path fill="#9f453b" opacity="0.24" d=" M 599.06 334.56 C 600.52 336.73 601.79 339.02 602.94 341.37 C 601.24 339.36 600.09 336.96 599.06 334.56 Z" />
<path fill="#9f453b" opacity="0.24" d=" M 607.03 348.59 C 608.51 350.79 609.81 353.10 610.92 355.51 C 609.28 353.41 608.04 351.04 607.03 348.59 Z" />
<path fill="#9f453b" opacity="0.24" d=" M 584.84 354.76 C 584.69 353.11 585.11 351.51 585.74 350.00 C 586.77 351.20 586.76 354.74 584.84 354.76 Z" />
<path fill="#9f453b" opacity="0.24" d=" M 583.97 359.93 C 583.76 358.58 584.29 357.31 584.80 356.11 C 585.90 357.01 585.76 360.18 583.97 359.93 Z" />
<path fill="#9f453b" opacity="0.24" d=" M 611.40 356.45 C 611.42 356.50 611.48 356.59 611.50 356.64 C 611.48 356.59 611.42 356.50 611.40 356.45 Z" />
<path fill="#9f453b" opacity="0.24" d=" M 445.37 357.43 C 445.40 357.48 445.46 357.58 445.48 357.63 C 445.46 357.58 445.40 357.48 445.37 357.43 Z" />
<path fill="#9f453b" opacity="0.24" d=" M 612.03 357.47 C 613.51 359.67 614.78 361.99 616.00 364.36 C 614.25 362.33 613.11 359.88 612.03 357.47 Z" />
<path fill="#9f453b" opacity="0.24" d=" M 446.41 359.37 C 446.44 359.42 446.50 359.52 446.52 359.57 C 446.50 359.52 446.44 359.42 446.41 359.37 Z" />
<path fill="#9f453b" opacity="0.24" d=" M 447.06 360.47 C 448.49 362.76 449.79 365.12 450.93 367.57 C 449.28 365.42 448.10 362.96 447.06 360.47 Z" />
<path fill="#9f453b" opacity="0.24" d=" M 579.11 392.34 C 580.37 382.03 582.30 371.82 583.96 361.57 C 583.73 367.17 582.29 372.62 581.61 378.17 C 580.72 382.88 580.37 387.70 579.11 392.34 Z" />
<path fill="#9f453b" opacity="0.24" d=" M 616.21 364.71 C 617.59 366.90 618.89 369.13 619.96 371.49 C 618.32 369.47 617.12 367.14 616.21 364.71 Z" />
<path fill="#9f453b" opacity="0.24" d=" M 451.40 368.52 C 451.43 368.58 451.48 368.69 451.51 368.74 C 451.48 368.69 451.43 368.58 451.40 368.52 Z" />
<path fill="#9f453b" opacity="0.24" d=" M 453.00 371.54 C 454.85 374.42 456.50 377.42 457.90 380.54 C 455.94 377.74 454.32 374.70 453.00 371.54 Z" />
<path fill="#9f453b" opacity="0.24" d=" M 620.43 372.46 C 620.46 372.50 620.51 372.59 620.53 372.64 C 620.51 372.59 620.46 372.50 620.43 372.46 Z" />
<path fill="#9f453b" opacity="0.24" d=" M 624.45 379.43 C 624.48 379.48 624.53 379.56 624.56 379.60 C 624.53 379.56 624.48 379.48 624.45 379.43 Z" />
<path fill="#9f453b" opacity="0.24" d=" M 458.36 381.48 C 458.39 381.53 458.44 381.63 458.47 381.68 C 458.44 381.63 458.39 381.53 458.36 381.48 Z" />
<path fill="#9f453b" opacity="0.24" d=" M 625.37 380.56 C 626.80 381.69 627.62 383.32 627.94 385.10 C 626.11 385.36 624.69 382.11 625.37 380.56 Z" />
<path fill="#9f453b" opacity="0.24" d=" M 461.14 386.41 C 462.54 388.69 463.76 391.07 464.89 393.49 C 463.26 391.35 462.11 388.90 461.14 386.41 Z" />
<path fill="#9f453b" opacity="0.24" d=" M 577.84 398.75 C 577.63 396.80 577.97 394.87 578.83 393.12 C 579.69 394.65 579.79 398.26 577.84 398.75 Z" />
<path fill="#9f453b" opacity="0.24" d=" M 632.33 393.43 C 632.36 393.48 632.42 393.58 632.45 393.63 C 632.42 393.58 632.36 393.48 632.33 393.43 Z" />
<path fill="#9f453b" opacity="0.24" d=" M 633.02 394.53 C 634.47 396.70 635.77 398.96 636.94 401.30 C 635.27 399.27 633.95 396.98 633.02 394.53 Z" />
<path fill="#9f453b" opacity="0.24" d=" M 466.41 396.43 C 466.44 396.48 466.49 396.58 466.52 396.63 C 466.49 396.58 466.44 396.48 466.41 396.43 Z" />
<path fill="#9f453b" opacity="0.24" d=" M 467.00 397.43 C 469.24 401.01 471.31 404.71 472.99 408.59 C 470.57 405.12 468.86 401.21 467.00 397.43 Z" />
<path fill="#9f453b" opacity="0.24" d=" M 640.30 407.42 C 640.33 407.48 640.39 407.59 640.43 407.64 C 640.39 407.59 640.33 407.48 640.30 407.42 Z" />
<path fill="#9f453b" opacity="0.24" d=" M 473.41 409.45 C 473.44 409.51 473.51 409.64 473.54 409.70 C 473.51 409.64 473.44 409.51 473.41 409.45 Z" />
<path fill="#9f453b" opacity="0.24" d=" M 435.44 469.33 C 441.62 468.67 447.85 469.24 454.05 469.07 C 456.83 469.17 459.74 468.59 462.41 469.61 C 453.55 469.67 444.69 469.57 435.84 469.68 C 435.78 480.47 436.06 491.25 435.85 502.03 C 435.66 510.22 436.32 518.43 435.62 526.60 C 434.56 526.53 433.51 526.48 432.47 526.45 C 431.94 513.36 432.59 500.25 432.13 487.17 C 431.62 487.99 430.59 489.63 430.07 490.45 C 430.55 488.49 430.94 486.44 432.23 484.82 C 433.69 488.04 432.59 491.66 432.81 495.07 C 432.96 505.31 432.46 515.59 433.05 525.81 C 433.60 525.90 434.69 526.06 435.24 526.14 C 435.80 507.21 435.22 488.27 435.44 469.33 Z" />
<path fill="#9f453b" opacity="0.24" d=" M 681.41 469.62 C 689.85 468.58 698.49 469.52 707.01 469.19 C 706.66 477.67 704.82 486.09 703.29 494.45 C 704.08 486.14 705.96 477.98 706.86 469.69 C 698.37 469.71 689.89 469.83 681.41 469.62 Z" />
<path fill="#9f453b" opacity="0.24" d=" M 739.25 471.95 C 739.53 471.03 739.33 469.05 740.86 469.24 C 749.25 469.01 757.66 469.37 766.06 469.12 C 766.08 471.41 765.81 473.70 765.09 475.88 C 765.21 473.70 765.12 471.52 764.99 469.36 C 756.71 470.20 748.37 469.44 740.07 469.78 C 738.25 480.31 736.95 490.92 734.96 501.41 C 735.82 491.52 737.90 481.78 739.25 471.95 Z" />
<path fill="#9f453b" opacity="0.24" d=" M 484.08 479.15 C 485.30 476.99 487.15 475.30 489.26 474.02 C 487.54 475.73 485.81 477.44 484.08 479.15 Z" />
<path fill="#9f453b" opacity="0.24" d=" M 418.15 474.55 C 423.05 479.84 422.05 487.44 421.95 494.05 C 421.31 498.51 420.89 503.12 419.05 507.29 C 421.41 496.65 424.51 484.43 418.15 474.55 Z" />
<path fill="#9f453b" opacity="0.24" d=" M 760.21 504.46 C 761.62 494.90 763.23 485.36 765.09 475.88 C 763.71 485.43 762.22 495.02 760.21 504.46 Z" />
<path fill="#9f453b" opacity="0.24" d=" M 355.05 481.99 C 355.50 480.07 356.97 478.76 358.60 477.80 C 359.32 479.57 356.82 482.33 355.05 481.99 Z" />
<path fill="#9f453b" opacity="0.24" d=" M 391.27 488.44 C 391.66 484.73 392.15 481.03 392.89 477.37 C 392.58 481.07 392.33 484.86 391.27 488.44 Z" />
<path fill="#9f453b" opacity="0.24" d=" M 528.56 478.33 C 528.59 478.37 528.64 478.46 528.66 478.51 C 528.64 478.46 528.59 478.37 528.56 478.33 Z" />
<path fill="#9f453b" opacity="0.24" d=" M 552.07 478.13 L 552.97 478.04 C 552.74 478.51 552.28 479.46 552.05 479.93 L 551.59 479.10 L 552.07 478.13 Z" />
<path fill="#9f453b" opacity="0.24" d=" M 302.18 484.82 C 301.27 483.57 301.00 479.93 303.00 479.95 C 303.22 481.62 302.71 483.25 302.18 484.82 Z" />
<path fill="#9f453b" opacity="0.24" d=" M 479.03 486.26 C 479.95 484.21 481.11 482.26 482.80 480.76 C 481.56 482.60 480.29 484.43 479.03 486.26 Z" />
<path fill="#9f453b" opacity="0.24" d=" M 551.39 481.64 C 551.40 481.59 551.44 481.48 551.46 481.43 C 551.44 481.48 551.40 481.59 551.39 481.64 Z" />
<path fill="#9f453b" opacity="0.24" d=" M 351.01 486.98 C 351.69 485.20 352.75 483.40 354.71 482.85 C 355.11 484.73 352.88 487.13 351.01 486.98 Z" />
<path fill="#9f453b" opacity="0.24" d=" M 550.33 484.63 C 550.35 484.58 550.39 484.47 550.41 484.41 C 550.39 484.47 550.35 484.58 550.33 484.63 Z" />
<path fill="#9f453b" opacity="0.24" d=" M 706.99 496.45 C 707.36 492.18 707.92 487.89 708.99 483.74 C 708.48 487.99 707.88 492.25 706.99 496.45 Z" />
<path fill="#9f453b" opacity="0.24" d=" M 474.15 496.47 C 475.04 492.95 476.56 489.58 478.76 486.69 C 477.17 489.92 475.64 493.18 474.15 496.47 Z" />
<path fill="#9f453b" opacity="0.24" d=" M 325.85 494.72 C 325.54 492.46 326.02 490.25 326.91 488.20 C 327.73 490.05 327.79 493.78 325.85 494.72 Z" />
<path fill="#9f453b" opacity="0.24" d=" M 326.36 515.96 C 328.17 506.60 328.84 497.04 330.93 487.74 C 329.97 497.02 328.13 506.18 327.14 515.45 C 329.46 513.95 331.13 511.74 332.90 509.67 C 331.77 511.95 329.68 513.60 328.65 515.94 C 329.32 518.92 331.27 521.41 332.00 524.39 C 330.35 521.38 329.19 518.08 327.04 515.37 C 325.52 523.72 324.72 532.19 323.10 540.52 C 323.70 532.28 325.49 524.17 326.36 515.96 Z" />
<path fill="#9f453b" opacity="0.24" d=" M 346.09 493.34 C 347.36 491.52 348.80 489.84 350.26 488.17 C 349.26 490.18 347.76 491.86 346.09 493.34 Z" />
<path fill="#9f453b" opacity="0.24" d=" M 500.21 499.24 C 500.55 495.31 501.14 491.41 501.98 487.56 C 501.72 491.49 501.10 495.40 500.21 499.24 Z" />
<path fill="#9f453b" opacity="0.24" d=" M 634.38 492.30 C 633.47 491.04 634.18 487.82 635.90 487.93 C 636.11 489.56 635.31 491.02 634.38 492.30 Z" />
<path fill="#9f453b" opacity="0.24" d=" M 578.49 493.04 C 578.45 491.58 578.61 490.13 578.89 488.71 C 578.96 515.20 578.69 541.70 579.03 568.19 C 578.59 567.20 578.40 566.17 578.45 565.10 C 578.51 541.08 578.52 517.06 578.49 493.04 Z" />
<path fill="#9f453b" opacity="0.24" d=" M 300.04 498.80 C 299.30 497.29 298.83 493.32 301.03 493.24 C 301.30 495.16 300.65 497.00 300.04 498.80 Z" />
<path fill="#9f453b" opacity="0.24" d=" M 338.15 503.22 C 340.50 499.93 343.10 496.83 345.75 493.78 C 343.80 497.33 340.96 500.34 338.15 503.22 Z" />
<path fill="#9f453b" opacity="0.24" d=" M 730.24 504.38 C 730.65 500.72 731.14 497.07 731.92 493.47 C 731.50 497.11 731.33 500.86 730.24 504.38 Z" />
<path fill="#9f453b" opacity="0.24" d=" M 427.08 497.11 L 427.98 497.02 C 427.75 497.49 427.28 498.43 427.05 498.90 L 426.59 498.07 L 427.08 497.11 Z" />
<path fill="#9f453b" opacity="0.24" d=" M 473.19 497.19 L 474.09 497.16 C 473.82 497.61 473.27 498.50 473.00 498.94 L 472.64 498.10 L 473.19 497.19 Z" />
<path fill="#9f453b" opacity="0.24" d=" M 544.25 498.13 C 544.64 498.16 545.42 498.20 545.82 498.22 C 545.16 521.63 545.91 545.09 545.37 568.52 C 537.62 568.92 529.85 568.84 522.10 568.73 C 521.69 568.53 520.87 568.14 520.46 567.94 C 528.65 567.80 536.84 568.23 545.04 568.16 C 545.31 547.44 544.61 526.71 545.15 505.99 C 545.25 503.52 545.00 501.05 544.37 498.67 L 544.25 498.13 Z" />
<path fill="#9f453b" opacity="0.24" d=" M 426.37 500.62 C 426.39 500.57 426.43 500.47 426.45 500.42 C 426.43 500.47 426.39 500.57 426.37 500.62 Z" />
<path fill="#9f453b" opacity="0.24" d=" M 472.08 500.33 L 472.97 500.17 C 472.77 500.66 472.36 501.64 472.16 502.13 L 471.66 501.33 L 472.08 500.33 Z" />
<path fill="#9f453b" opacity="0.24" d=" M 379.18 567.46 C 382.19 546.09 385.48 524.75 388.98 503.46 C 387.13 519.35 384.26 535.14 382.00 550.99 C 380.98 556.46 380.65 562.07 379.18 567.46 Z" />
<path fill="#9f453b" opacity="0.24" d=" M 417.12 512.05 C 417.21 510.49 417.59 508.95 418.68 507.80 C 419.72 509.01 418.85 512.23 417.12 512.05 Z" />
<path fill="#9f453b" opacity="0.24" d=" M 322.94 513.75 C 322.73 512.13 323.26 510.59 323.80 509.11 C 324.85 510.24 324.92 513.85 322.94 513.75 Z" />
<path fill="#9f453b" opacity="0.24" d=" M 625.09 517.41 C 625.79 514.68 626.55 511.94 627.94 509.48 C 627.13 512.17 626.22 514.83 625.09 517.41 Z" />
<path fill="#9f453b" opacity="0.24" d=" M 674.24 515.86 C 673.07 515.01 673.19 511.78 675.01 512.14 C 675.21 513.44 674.73 514.68 674.24 515.86 Z" />
<path fill="#9f453b" opacity="0.24" d=" M 421.23 513.35 L 422.13 513.23 C 421.91 513.70 421.46 514.66 421.24 515.13 L 420.77 514.33 L 421.23 513.35 Z" />
<path fill="#9f453b" opacity="0.24" d=" M 417.07 526.37 C 417.64 523.66 418.61 521.07 419.89 518.63 C 419.17 521.28 418.20 523.86 417.07 526.37 Z" />
<path fill="#9f453b" opacity="0.24" d=" M 404.63 525.15 C 407.31 523.74 409.90 522.14 412.32 520.31 C 410.30 522.65 407.61 524.34 404.63 525.15 Z" />
<path fill="#9f453b" opacity="0.24" d=" M 489.48 567.83 C 491.88 551.74 494.34 535.66 497.03 519.62 C 495.18 535.14 492.37 550.56 490.11 566.02 C 490.01 569.70 485.78 568.25 483.79 567.15 C 485.63 567.67 487.55 567.88 489.48 567.83 Z" />
<path fill="#9f453b" opacity="0.24" d=" M 623.45 521.63 C 623.47 521.58 623.50 521.48 623.52 521.43 C 623.50 521.48 623.47 521.58 623.45 521.63 Z" />
<path fill="#9f453b" opacity="0.24" d=" M 731.23 525.88 C 730.06 525.01 730.20 521.90 732.00 522.12 C 732.22 523.43 731.75 524.69 731.23 525.88 Z" />
<path fill="#9f453b" opacity="0.24" d=" M 622.34 524.62 C 622.36 524.56 622.40 524.45 622.42 524.39 C 622.40 524.45 622.36 524.56 622.34 524.62 Z" />
<path fill="#9f453b" opacity="0.24" d=" M 534.12 526.11 L 535.03 526.04 C 534.77 526.50 534.25 527.41 533.99 527.86 L 533.59 527.04 L 534.12 526.11 Z" />
<path fill="#9f453b" opacity="0.24" d=" M 413.01 537.55 C 413.91 533.84 415.20 530.21 416.90 526.80 C 415.81 530.45 414.54 534.05 413.01 537.55 Z" />
<path fill="#9f453b" opacity="0.24" d=" M 499.94 528.02 C 509.01 528.00 518.09 527.97 527.16 528.01 C 528.35 527.97 528.98 528.60 529.04 529.90 L 528.43 529.39 C 528.14 529.15 527.57 528.68 527.28 528.45 C 518.24 528.64 509.19 528.40 500.15 528.66 L 499.94 528.02 Z" />
<path fill="#9f453b" opacity="0.24" d=" M 730.26 531.92 C 729.10 531.04 729.24 527.89 731.04 528.16 C 731.28 529.48 730.76 530.73 730.26 531.92 Z" />
<path fill="#9f453b" opacity="0.24" d=" M 334.00 528.69 C 335.42 530.68 336.39 532.94 337.08 535.29 C 335.93 533.15 334.90 530.94 334.00 528.69 Z" />
<path fill="#9f453b" opacity="0.24" d=" M 533.04 529.18 L 533.93 529.05 C 533.72 529.53 533.30 530.50 533.09 530.98 L 532.60 530.17 L 533.04 529.18 Z" />
<path fill="#9f453b" opacity="0.24" d=" M 525.15 539.12 C 526.02 536.23 526.98 533.36 528.08 530.55 C 527.63 533.56 526.59 536.45 525.15 539.12 Z" />
<path fill="#9f453b" opacity="0.24" d=" M 432.53 534.26 C 433.58 534.20 434.64 534.14 435.71 534.10 L 435.77 534.76 C 435.08 534.73 433.69 534.65 433.00 534.62 C 432.86 545.98 433.31 557.37 432.76 568.72 C 422.57 568.95 412.37 568.83 402.17 568.77 C 401.67 566.56 402.81 564.56 403.81 562.69 C 403.25 564.51 402.78 566.37 402.32 568.22 C 412.34 568.36 422.36 568.26 432.39 568.25 C 432.70 556.92 432.43 545.59 432.53 534.26 Z" />
<path fill="#9f453b" opacity="0.24" d=" M 637.35 534.26 C 638.52 534.18 639.70 534.13 640.89 534.09 C 641.18 545.19 640.89 556.29 641.05 567.39 C 640.02 556.64 641.22 545.70 640.51 534.91 C 639.84 534.84 638.51 534.70 637.85 534.63 C 637.94 545.76 638.05 556.90 637.96 568.04 C 629.37 568.96 620.67 568.18 612.04 568.59 C 610.26 568.46 608.22 569.11 606.70 567.90 C 615.79 567.97 624.88 567.96 633.98 567.94 C 635.33 567.84 637.73 568.13 637.39 566.00 C 637.57 555.42 637.21 544.84 637.35 534.26 Z" />
<path fill="#9f453b" opacity="0.24" d=" M 727.92 546.32 C 728.10 542.11 728.93 537.96 729.87 533.87 C 729.42 538.05 728.69 542.18 727.92 546.32 Z" />
<path fill="#9f453b" opacity="0.24" d=" M 531.39 535.59 C 531.41 535.53 531.45 535.42 531.47 535.36 C 531.45 535.42 531.41 535.53 531.39 535.59 Z" />
<path fill="#9f453b" opacity="0.24" d=" M 318.17 548.19 C 318.54 543.96 319.17 539.77 319.98 535.62 C 319.61 539.82 319.16 544.07 318.17 548.19 Z" />
<path fill="#9f453b" opacity="0.24" d=" M 617.20 537.33 L 618.10 537.22 C 617.88 537.70 617.43 538.64 617.20 539.12 L 616.73 538.30 L 617.20 537.33 Z" />
<path fill="#9f453b" opacity="0.24" d=" M 338.58 538.36 C 338.60 538.41 338.65 538.52 338.68 538.57 C 338.65 538.52 338.60 538.41 338.58 538.36 Z" />
<path fill="#9f453b" opacity="0.24" d=" M 522.05 546.26 C 522.94 543.98 523.95 541.76 524.99 539.54 C 524.61 542.01 523.40 544.20 522.05 546.26 Z" />
<path fill="#9f453b" opacity="0.24" d=" M 340.52 542.40 C 340.54 542.46 340.59 542.56 340.62 542.62 C 340.59 542.56 340.54 542.46 340.52 542.40 Z" />
<path fill="#9f453b" opacity="0.24" d=" M 342.01 545.73 C 343.64 548.46 345.18 551.28 346.03 554.37 C 344.45 551.60 343.15 548.69 342.01 545.73 Z" />
<path fill="#9f453b" opacity="0.24" d=" M 520.50 549.63 C 520.52 549.59 520.57 549.50 520.59 549.46 C 520.57 549.50 520.52 549.59 520.50 549.63 Z" />
<path fill="#9f453b" opacity="0.24" d=" M 526.04 549.18 L 526.94 549.07 C 526.71 549.54 526.26 550.49 526.03 550.96 L 525.57 550.14 L 526.04 549.18 Z" />
<path fill="#9f453b" opacity="0.24" d=" M 354.99 562.28 C 355.29 558.13 355.98 554.00 356.90 549.95 C 356.51 554.09 355.82 558.20 354.99 562.28 Z" />
<path fill="#9f453b" opacity="0.24" d=" M 407.03 552.13 L 407.93 552.00 C 407.72 552.48 407.29 553.45 407.08 553.94 L 406.59 553.12 L 407.03 552.13 Z" />
<path fill="#9f453b" opacity="0.24" d=" M 523.03 559.51 C 523.60 556.74 524.52 554.06 525.82 551.56 C 525.06 554.26 524.18 556.94 523.03 559.51 Z" />
<path fill="#9f453b" opacity="0.24" d=" M 406.39 555.61 C 406.41 555.56 406.45 555.46 406.47 555.41 C 406.45 555.46 406.41 555.56 406.39 555.61 Z" />
<path fill="#9f453b" opacity="0.24" d=" M 474.36 558.46 C 474.39 558.50 474.44 558.59 474.47 558.64 C 474.44 558.59 474.39 558.50 474.36 558.46 Z" />
<path fill="#9f453b" opacity="0.24" d=" M 348.50 559.30 C 348.53 559.35 348.58 559.46 348.60 559.51 C 348.58 559.46 348.53 559.35 348.50 559.30 Z" />
<path fill="#9f453b" opacity="0.24" d=" M 476.13 560.96 C 477.75 562.69 479.48 564.33 481.28 565.89 C 479.06 564.85 477.31 563.09 476.13 560.96 Z" />
<path fill="#9f453b" opacity="0.24" d=" M 691.88 565.71 C 691.29 564.09 692.10 562.49 692.74 561.04 C 693.68 562.24 693.60 565.49 691.88 565.71 Z" />
<path fill="#9f453b" opacity="0.24" d=" M 319.15 568.79 C 318.83 566.43 319.24 564.09 319.90 561.83 C 319.70 563.96 319.57 566.11 319.42 568.26 C 330.23 568.33 341.04 568.18 351.86 568.29 C 351.39 566.37 350.86 564.47 350.06 562.68 C 351.27 564.50 352.35 566.55 352.02 568.82 C 341.06 568.90 330.10 568.84 319.15 568.79 Z" />
<path fill="#9f453b" opacity="0.24" d=" M 682.34 566.54 C 682.39 566.56 682.49 566.59 682.54 566.61 C 682.49 566.59 682.39 566.56 682.34 566.54 Z" />
<path fill="#9f453b" opacity="0.24" d=" M 684.69 567.15 C 687.20 567.72 689.77 567.91 692.33 567.56 C 690.00 569.11 687.08 567.93 684.69 567.15 Z" />
<path fill="#9f453b" opacity="0.24" d=" M 548.50 567.93 C 557.40 568.86 566.37 568.05 575.30 568.41 C 574.23 568.80 573.14 568.98 572.02 568.95 C 564.17 568.85 556.32 568.93 548.47 569.02 L 548.50 567.93 Z" />
</g>
<g id="#d3301aff">
<path fill="#d3301a" opacity="1.00" d=" M 289.80 32.69 C 330.53 32.25 371.28 32.66 412.02 32.49 C 413.65 32.56 415.37 32.28 416.95 32.85 C 419.32 37.25 421.22 41.90 423.48 46.37 C 423.50 46.42 423.55 46.52 423.58 46.57 C 425.58 50.82 427.56 55.07 429.60 59.31 C 429.62 59.36 429.67 59.46 429.69 59.51 C 430.64 61.46 431.59 63.41 432.53 65.37 C 432.55 65.42 432.60 65.51 432.62 65.56 C 433.10 66.58 433.56 67.62 434.01 68.66 C 435.42 72.34 437.06 75.92 439.04 79.32 C 440.27 81.62 441.33 84.00 442.44 86.35 C 442.47 86.41 442.51 86.51 442.54 86.56 L 443.00 87.65 C 444.17 90.66 445.55 93.59 447.12 96.42 L 447.64 97.40 C 447.67 97.45 447.72 97.55 447.75 97.61 L 448.61 99.35 C 448.63 99.41 448.69 99.52 448.71 99.57 L 449.56 101.35 C 449.59 101.40 449.64 101.51 449.67 101.57 C 451.77 106.38 454.39 111.01 456.16 115.96 C 453.80 131.01 451.57 146.13 448.79 161.12 C 447.99 162.88 447.59 164.78 447.82 166.71 C 447.13 175.09 445.24 183.36 444.05 191.69 C 442.54 199.89 441.24 208.14 440.15 216.41 C 437.28 235.19 434.17 253.95 431.15 272.71 C 430.23 276.81 429.70 280.97 429.16 285.13 L 429.05 285.80 C 428.20 289.88 427.52 293.99 427.09 298.13 C 426.81 300.31 426.45 302.47 426.03 304.63 C 421.86 329.79 417.63 354.96 414.00 380.21 C 412.49 389.85 410.87 399.47 409.46 409.13 C 409.19 410.09 409.29 411.47 408.18 411.96 C 370.80 411.79 333.40 411.93 296.02 411.89 C 293.99 411.62 291.42 412.79 289.83 411.09 C 289.98 328.39 289.85 245.68 289.89 162.98 C 289.84 119.55 290.01 76.12 289.80 32.69 Z" />
<path fill="#d3301a" opacity="1.00" d=" M 480.22 32.86 C 513.76 32.83 547.30 32.70 580.83 32.92 C 581.36 34.08 581.91 35.22 582.48 36.36 C 582.51 36.42 582.56 36.52 582.58 36.57 C 583.21 37.85 583.85 39.11 584.52 40.37 C 584.55 40.42 584.60 40.52 584.63 40.57 L 585.51 42.28 C 585.54 42.33 585.59 42.45 585.62 42.50 C 586.25 43.76 586.88 45.02 587.52 46.28 C 587.55 46.33 587.61 46.44 587.63 46.49 C 588.30 47.79 588.97 49.09 589.65 50.39 C 589.68 50.44 589.73 50.53 589.75 50.58 C 590.60 52.25 591.49 53.91 592.24 55.63 C 593.44 58.71 595.06 61.59 596.78 64.41 C 600.02 70.72 603.13 77.09 606.43 83.38 C 606.46 83.44 606.52 83.55 606.54 83.60 L 607.46 85.39 C 607.49 85.45 607.54 85.55 607.57 85.60 C 608.51 87.57 609.51 89.53 610.55 91.45 C 610.58 91.51 610.64 91.62 610.67 91.67 L 611.54 93.37 C 611.56 93.42 611.62 93.52 611.64 93.58 C 612.27 94.87 612.91 96.16 613.57 97.44 C 613.59 97.49 613.65 97.60 613.67 97.65 L 614.57 99.36 C 614.60 99.41 614.65 99.51 614.67 99.56 C 615.67 101.47 616.62 103.40 617.58 105.33 C 617.60 105.38 617.65 105.48 617.68 105.53 L 618.57 107.29 C 618.59 107.34 618.65 107.45 618.67 107.50 C 619.97 110.12 621.36 112.68 622.63 115.31 C 622.65 115.35 622.69 115.44 622.71 115.49 C 622.79 116.05 622.96 117.18 623.04 117.75 C 622.24 121.83 621.52 125.94 621.11 130.08 C 616.12 161.85 610.97 193.60 605.82 225.34 C 605.08 228.89 604.49 232.46 604.12 236.07 C 599.13 267.87 594.07 299.66 588.81 331.41 C 588.10 334.96 587.52 338.54 587.14 342.15 C 586.77 344.78 586.51 347.45 585.74 350.00 C 585.11 351.51 584.69 353.11 584.84 354.76 L 584.80 356.11 C 584.29 357.31 583.76 358.58 583.97 359.93 C 583.97 360.34 583.97 361.16 583.96 361.57 C 582.30 371.82 580.37 382.03 579.11 392.34 L 578.83 393.12 C 577.97 394.87 577.63 396.80 577.84 398.75 C 577.73 402.97 576.73 407.13 576.03 411.29 C 575.80 411.43 575.35 411.73 575.12 411.88 C 542.39 411.91 509.65 411.84 476.92 411.91 C 475.26 412.31 474.08 411.14 473.54 409.70 C 473.51 409.64 473.44 409.51 473.41 409.45 L 472.99 408.59 C 471.31 404.71 469.24 401.01 467.00 397.43 L 466.52 396.63 C 466.49 396.58 466.44 396.48 466.41 396.43 C 465.88 395.46 465.37 394.48 464.89 393.49 C 463.76 391.07 462.54 388.69 461.14 386.41 C 460.22 384.85 459.31 383.28 458.47 381.68 C 458.44 381.63 458.39 381.53 458.36 381.48 L 457.90 380.54 C 456.50 377.42 454.85 374.42 453.00 371.54 C 452.47 370.62 451.97 369.69 451.51 368.74 C 451.48 368.69 451.43 368.58 451.40 368.52 L 450.93 367.57 C 449.79 365.12 448.49 362.76 447.06 360.47 L 446.52 359.57 C 446.50 359.52 446.44 359.42 446.41 359.37 L 445.48 357.63 C 445.46 357.58 445.40 357.48 445.37 357.43 C 443.29 353.38 440.99 349.45 438.93 345.40 C 437.16 341.65 435.21 338.00 433.02 334.48 C 432.01 332.46 430.15 330.47 430.82 328.06 C 435.85 298.15 440.86 268.24 445.93 238.34 C 450.07 214.80 454.18 191.23 457.75 167.59 C 458.10 165.22 458.55 162.87 459.00 160.52 C 459.75 157.00 460.32 153.45 460.80 149.89 C 462.09 141.40 463.50 132.94 464.98 124.48 C 468.13 106.90 471.21 89.29 473.87 71.63 C 475.83 58.68 478.29 45.81 480.22 32.86 Z" />
<path fill="#d3301a" opacity="1.00" d=" M 645.89 32.76 C 686.38 32.72 726.88 32.57 767.38 32.57 C 767.47 158.83 767.41 285.09 767.41 411.35 C 745.04 411.59 722.66 411.13 700.30 411.74 C 681.07 411.78 661.82 412.06 642.60 411.67 C 641.90 410.31 641.18 408.96 640.43 407.64 C 640.39 407.59 640.33 407.48 640.30 407.42 C 639.13 405.40 638.00 403.37 636.94 401.30 C 635.77 398.96 634.47 396.70 633.02 394.53 L 632.45 393.63 C 632.42 393.58 632.36 393.48 632.33 393.43 C 630.88 390.65 629.06 388.04 627.94 385.10 C 627.62 383.32 626.80 381.69 625.37 380.56 L 624.56 379.60 C 624.53 379.56 624.48 379.48 624.45 379.43 C 623.14 377.16 621.83 374.90 620.53 372.64 C 620.51 372.59 620.46 372.50 620.43 372.46 L 619.96 371.49 C 618.89 369.13 617.59 366.90 616.21 364.71 L 616.00 364.36 C 614.78 361.99 613.51 359.67 612.03 357.47 L 611.50 356.64 C 611.48 356.59 611.42 356.50 611.40 356.45 L 610.92 355.51 C 609.81 353.10 608.51 350.79 607.03 348.59 C 605.57 346.24 604.24 343.81 602.94 341.37 C 601.79 339.02 600.52 336.73 599.06 334.56 C 598.12 333.21 597.28 331.67 597.87 329.99 C 601.39 309.18 604.48 288.30 608.01 267.49 C 611.55 246.62 615.01 225.73 618.05 204.78 C 618.34 202.79 618.49 200.76 619.19 198.87 C 619.81 197.39 620.31 195.82 620.01 194.21 C 620.28 189.12 621.37 184.03 622.29 179.00 C 622.84 178.09 623.05 177.11 622.92 176.06 C 623.47 169.19 624.82 162.35 625.99 155.54 C 629.50 135.00 632.87 114.41 635.91 93.79 C 636.55 89.37 637.20 84.95 638.05 80.57 C 638.87 76.96 639.29 73.28 639.73 69.60 C 639.85 69.17 640.10 68.30 640.22 67.86 C 640.73 66.68 641.21 65.42 641.00 64.11 C 640.82 61.47 641.45 58.87 641.91 56.29 C 642.76 52.17 643.37 48.01 643.95 43.85 L 644.01 43.49 C 644.73 39.93 645.21 36.33 645.89 32.76 Z" />
<path fill="#d3301a" opacity="1.00" d=" M 303.00 479.95 C 303.11 476.17 303.57 472.30 304.77 468.70 C 312.95 468.95 321.15 469.03 329.33 468.67 C 330.01 470.77 329.32 472.92 329.03 475.03 C 328.26 479.41 327.99 483.88 326.91 488.20 C 326.02 490.25 325.54 492.46 325.85 494.72 C 325.70 499.55 324.71 504.36 323.80 509.11 C 323.26 510.59 322.73 512.13 322.94 513.75 C 322.49 521.07 321.11 528.35 319.98 535.62 C 319.17 539.77 318.54 543.96 318.17 548.19 C 317.30 554.94 316.21 561.67 315.20 568.41 C 306.33 568.49 297.41 568.89 288.56 568.20 C 289.36 566.94 289.82 565.55 290.00 564.09 C 293.41 542.34 296.31 520.49 300.04 498.80 C 300.65 497.00 301.30 495.16 301.03 493.24 C 300.89 490.39 301.39 487.55 302.18 484.82 C 302.71 483.25 303.22 481.62 303.00 479.95 Z" />
<path fill="#d3301a" opacity="1.00" d=" M 330.93 487.74 C 331.89 481.42 332.61 475.05 333.78 468.78 C 344.42 469.21 355.12 468.40 365.73 469.16 C 363.47 472.13 361.17 475.10 358.60 477.80 C 356.97 478.76 355.50 480.07 355.05 481.99 L 354.71 482.85 C 352.75 483.40 351.69 485.20 351.01 486.98 C 350.82 487.28 350.45 487.87 350.26 488.17 C 348.80 489.84 347.36 491.52 346.09 493.34 L 345.75 493.78 C 343.10 496.83 340.50 499.93 338.15 503.22 C 336.49 505.45 334.69 507.55 332.90 509.67 C 331.13 511.74 329.46 513.95 327.14 515.45 C 328.13 506.18 329.97 497.02 330.93 487.74 Z" />
<path fill="#d3301a" opacity="1.00" d=" M 368.98 470.10 C 369.33 468.27 371.68 468.93 373.00 468.79 C 379.92 469.01 386.88 468.65 393.78 469.00 C 394.43 471.81 393.24 474.59 392.89 477.37 C 392.15 481.03 391.66 484.73 391.27 488.44 C 390.51 493.45 389.86 498.47 388.98 503.46 C 385.48 524.75 382.19 546.09 379.18 567.46 L 379.06 568.46 C 370.80 568.64 362.54 568.53 354.29 568.51 C 354.39 566.41 354.61 564.33 354.99 562.28 C 355.82 558.20 356.51 554.09 356.90 549.95 C 360.70 523.30 365.00 496.72 368.98 470.10 Z" />
<path fill="#d3301a" opacity="1.00" d=" M 395.43 487.09 C 396.72 480.99 396.97 474.66 398.85 468.69 C 405.64 468.56 413.33 469.12 418.15 474.55 C 424.51 484.43 421.41 496.65 419.05 507.29 L 418.68 507.80 C 417.59 508.95 417.21 510.49 417.12 512.05 C 416.39 515.18 414.30 517.84 412.32 520.31 C 409.90 522.14 407.31 523.74 404.63 525.15 C 399.60 526.89 394.15 526.95 388.91 526.44 C 391.04 513.31 393.25 500.21 395.43 487.09 Z" />
<path fill="#d3301a" opacity="1.00" d=" M 489.26 474.02 C 493.54 470.34 499.14 468.05 504.85 468.32 C 504.13 474.77 503.13 481.18 501.98 487.56 C 501.14 491.41 500.55 495.31 500.21 499.24 C 499.14 506.03 498.25 512.85 497.03 519.62 C 494.34 535.66 491.88 551.74 489.48 567.83 C 487.55 567.88 485.63 567.67 483.79 567.15 C 482.91 566.79 482.08 566.37 481.28 565.89 C 479.48 564.33 477.75 562.69 476.13 560.96 C 475.71 560.38 474.89 559.22 474.47 558.64 C 474.44 558.59 474.39 558.50 474.36 558.46 C 467.11 545.28 466.61 529.42 468.94 514.86 C 469.77 510.57 470.44 506.17 472.16 502.13 C 472.36 501.64 472.77 500.66 472.97 500.17 L 473.00 498.94 C 473.27 498.50 473.82 497.61 474.09 497.16 L 474.15 496.47 C 475.64 493.18 477.17 489.92 478.76 486.69 L 479.03 486.26 C 480.29 484.43 481.56 482.60 482.80 480.76 C 483.12 480.36 483.76 479.55 484.08 479.15 C 485.81 477.44 487.54 475.73 489.26 474.02 Z" />
<path fill="#d3301a" opacity="1.00" d=" M 509.26 468.97 C 516.72 467.11 524.86 471.74 528.56 478.33 C 528.59 478.37 528.64 478.46 528.66 478.51 C 532.73 486.16 533.30 495.33 531.73 503.73 C 526.62 504.69 521.23 503.87 516.01 504.14 C 512.12 504.04 508.19 504.46 504.35 503.70 C 506.24 492.17 507.39 480.50 509.26 468.97 Z" />
<path fill="#d3301a" opacity="1.00" d=" M 556.35 469.42 C 562.31 468.98 568.32 469.27 574.30 468.75 C 574.67 469.77 574.91 470.83 575.02 471.91 C 575.20 504.08 574.98 536.25 575.30 568.41 C 566.37 568.05 557.40 568.86 548.50 567.93 L 548.13 567.89 C 548.23 542.59 548.18 517.29 548.22 492.00 C 548.24 489.39 549.47 487.03 550.33 484.63 C 550.35 484.58 550.39 484.47 550.41 484.41 C 550.65 483.72 551.14 482.33 551.39 481.64 C 551.40 481.59 551.44 481.48 551.46 481.43 L 552.05 479.93 C 552.28 479.46 552.74 478.51 552.97 478.04 C 553.74 475.13 554.46 471.67 556.35 469.42 Z" />
<path fill="#d3301a" opacity="1.00" d=" M 585.14 469.26 C 591.40 469.35 597.65 468.92 603.90 469.07 C 604.14 497.71 603.92 526.35 604.01 554.98 C 603.92 559.55 604.23 564.12 603.82 568.68 C 595.57 568.62 587.31 568.46 579.05 568.66 L 579.03 568.19 C 578.69 541.70 578.96 515.20 578.89 488.71 C 581.13 482.27 582.65 475.60 585.14 469.26 Z" />
<path fill="#d3301a" opacity="1.00" d=" M 640.44 469.43 C 649.22 469.24 658.00 469.43 666.79 469.35 C 667.47 480.84 666.90 492.42 667.09 503.95 C 667.08 524.34 667.14 544.73 667.17 565.11 C 667.27 566.43 666.88 568.47 665.07 568.08 C 657.07 568.11 649.06 568.02 641.05 568.13 L 641.05 567.39 C 640.89 556.29 641.18 545.19 640.89 534.09 C 639.70 534.13 638.52 534.18 637.35 534.26 C 637.21 544.84 637.57 555.42 637.39 566.00 C 637.73 568.13 635.33 567.84 633.98 567.94 C 624.88 567.96 615.79 567.97 606.70 567.90 C 610.10 558.27 613.49 548.63 617.20 539.12 C 617.43 538.64 617.88 537.70 618.10 537.22 C 618.96 532.88 621.09 528.87 622.34 524.62 C 622.36 524.56 622.40 524.45 622.42 524.39 C 622.68 523.70 623.19 522.32 623.45 521.63 C 623.47 521.58 623.50 521.48 623.52 521.43 C 624.01 520.07 624.53 518.74 625.09 517.41 C 626.22 514.83 627.13 512.17 627.94 509.48 C 630.01 503.73 631.94 497.89 634.38 492.30 C 635.31 491.02 636.11 489.56 635.90 487.93 L 635.90 486.40 L 637.49 486.26 C 637.06 499.41 637.39 512.60 637.37 525.76 C 638.12 525.90 639.61 526.20 640.35 526.34 C 640.60 507.38 640.39 488.40 640.44 469.43 Z" />
<path fill="#d3301a" opacity="1.00" d=" M 435.84 469.68 C 444.69 469.57 453.55 469.67 462.41 469.61 C 461.83 502.57 462.52 535.55 462.17 568.52 C 453.74 568.54 445.29 568.62 436.86 568.50 L 436.23 568.08 C 435.37 557.04 436.32 545.85 435.77 534.76 L 435.71 534.10 C 434.64 534.14 433.58 534.20 432.53 534.26 C 432.43 545.59 432.70 556.92 432.39 568.25 C 422.36 568.26 412.34 568.36 402.32 568.22 C 402.78 566.37 403.25 564.51 403.81 562.69 C 404.64 560.32 405.58 557.99 406.39 555.61 C 406.41 555.56 406.45 555.46 406.47 555.41 L 407.08 553.94 C 407.29 553.45 407.72 552.48 407.93 552.00 C 409.20 547.06 411.31 542.36 413.01 537.55 C 414.54 534.05 415.81 530.45 416.90 526.80 L 417.07 526.37 C 418.20 523.86 419.17 521.28 419.89 518.63 C 420.24 517.42 420.64 516.23 421.24 515.13 C 421.46 514.66 421.91 513.70 422.13 513.23 C 422.98 508.87 425.13 504.88 426.37 500.62 C 426.39 500.57 426.43 500.47 426.45 500.42 L 427.05 498.90 C 427.28 498.43 427.75 497.49 427.98 497.02 C 428.33 494.73 429.25 492.59 430.07 490.45 C 430.59 489.63 431.62 487.99 432.13 487.17 C 432.59 500.25 431.94 513.36 432.47 526.45 C 433.51 526.48 434.56 526.53 435.62 526.60 C 436.32 518.43 435.66 510.22 435.85 502.03 C 436.06 491.25 435.78 480.47 435.84 469.68 Z" />
<path fill="#d3301a" opacity="1.00" d=" M 675.01 512.14 C 676.44 497.91 679.63 483.84 681.41 469.62 C 689.89 469.83 698.37 469.71 706.86 469.69 C 705.96 477.98 704.08 486.14 703.29 494.45 C 699.76 516.64 696.47 538.88 692.74 561.04 C 692.10 562.49 691.29 564.09 691.88 565.71 L 692.33 567.56 C 689.77 567.91 687.20 567.72 684.69 567.15 C 684.16 567.02 683.08 566.75 682.54 566.61 C 682.49 566.59 682.39 566.56 682.34 566.54 C 675.16 564.35 671.16 556.91 670.53 549.82 C 669.43 538.37 672.30 527.06 674.24 515.86 C 674.73 514.68 675.21 513.44 675.01 512.14 Z" />
<path fill="#d3301a" opacity="1.00" d=" M 711.06 469.64 C 719.27 469.27 727.51 469.52 735.73 469.50 C 734.68 477.51 733.25 485.49 731.92 493.47 C 731.14 497.07 730.65 500.72 730.24 504.38 C 726.87 525.22 723.54 546.06 720.20 566.89 C 719.87 568.16 718.10 568.22 717.06 568.23 C 710.34 568.11 703.61 568.30 696.90 568.13 C 695.08 567.53 696.16 565.19 696.18 563.88 C 699.80 541.40 703.26 518.90 706.99 496.45 C 707.88 492.25 708.48 487.99 708.99 483.74 C 709.60 479.02 710.62 474.37 711.06 469.64 Z" />
<path fill="#d3301a" opacity="1.00" d=" M 740.07 469.78 C 748.37 469.44 756.71 470.20 764.99 469.36 C 765.12 471.52 765.21 473.70 765.09 475.88 C 763.23 485.36 761.62 494.90 760.21 504.46 C 756.54 525.69 753.16 546.97 749.16 568.14 C 741.01 568.24 732.86 568.14 724.71 568.24 C 725.31 560.88 726.86 553.62 727.92 546.32 C 728.69 542.18 729.42 538.05 729.87 533.87 C 729.97 533.38 730.16 532.41 730.26 531.92 C 730.76 530.73 731.28 529.48 731.04 528.16 C 731.09 527.59 731.19 526.45 731.23 525.88 C 731.75 524.69 732.22 523.43 732.00 522.12 C 732.31 515.17 733.80 508.27 734.96 501.41 C 736.95 490.92 738.25 480.31 740.07 469.78 Z" />
<path fill="#d3301a" opacity="1.00" d=" M 544.37 498.67 C 545.00 501.05 545.25 503.52 545.15 505.99 C 544.61 526.71 545.31 547.44 545.04 568.16 C 536.84 568.23 528.65 567.80 520.46 567.94 L 520.01 567.94 C 520.97 565.11 521.88 562.27 523.03 559.51 C 524.18 556.94 525.06 554.26 525.82 551.56 L 526.03 550.96 C 526.26 550.49 526.71 549.54 526.94 549.07 C 527.87 544.43 530.02 540.12 531.39 535.59 C 531.41 535.53 531.45 535.42 531.47 535.36 C 531.98 533.88 532.46 532.40 533.09 530.98 C 533.30 530.50 533.72 529.53 533.93 529.05 L 533.99 527.86 C 534.25 527.41 534.77 526.50 535.03 526.04 C 537.73 516.82 541.25 507.78 544.37 498.67 Z" />
<path fill="#d3301a" opacity="1.00" d=" M 327.04 515.37 C 329.19 518.08 330.35 521.38 332.00 524.39 C 332.72 525.79 333.37 527.23 334.00 528.69 C 334.90 530.94 335.93 533.15 337.08 535.29 C 337.59 536.30 338.09 537.32 338.58 538.36 C 338.60 538.41 338.65 538.52 338.68 538.57 C 339.27 539.85 339.89 541.12 340.52 542.40 C 340.54 542.46 340.59 542.56 340.62 542.62 C 341.11 543.63 341.57 544.67 342.01 545.73 C 343.15 548.69 344.45 551.60 346.03 554.37 C 346.91 555.99 347.71 557.63 348.50 559.30 C 348.53 559.35 348.58 559.46 348.60 559.51 C 349.11 560.55 349.59 561.60 350.06 562.68 C 350.86 564.47 351.39 566.37 351.86 568.29 C 341.04 568.18 330.23 568.33 319.42 568.26 C 319.57 566.11 319.70 563.96 319.90 561.83 C 321.05 554.74 321.89 547.60 323.10 540.52 C 324.72 532.19 325.52 523.72 327.04 515.37 Z" />
<path fill="#d3301a" opacity="1.00" d=" M 500.15 528.66 C 509.19 528.40 518.24 528.64 527.28 528.45 C 527.57 528.68 528.14 529.15 528.43 529.39 L 528.08 530.55 C 526.98 533.36 526.02 536.23 525.15 539.12 L 524.99 539.54 C 523.95 541.76 522.94 543.98 522.05 546.26 C 521.59 547.33 521.11 548.40 520.59 549.46 C 520.57 549.50 520.52 549.59 520.50 549.63 C 515.52 559.48 506.33 568.93 494.51 568.57 C 495.99 555.22 498.17 541.95 500.15 528.66 Z" />
</g>
</svg>
