<?xml version="1.0" encoding="utf-8"?>
<!-- Generator: Adobe Illustrator 20.1.0, SVG Export Plug-In . SVG Version: 6.00 Build 0)  -->
<svg version="1.1" xmlns="http://www.w3.org/2000/svg" xmlns:xlink="http://www.w3.org/1999/xlink" x="0px" y="0px"
	 viewBox="0 0 210 120" style="enable-background:new 0 0 210 120;" xml:space="preserve">
<style type="text/css">
	.st0{fill:#2E3192;}
</style>
<g id="Layer_1">
	<g>
		<g>
			<path class="st0" d="M154.2,25.4c-6.8-9.5-16.3-17-27.1-21.3c-6.2-2.4-12.9-3.7-19.5-4.1C100.3-0.3,93,1,86.1,3c0,0-0.1,0-0.1,0
				c-0.1,0-0.2,0.1-0.3,0.1c-0.1,0-0.1,0-0.2,0.1c0,0,0,0,0,0c0,0,0,0-0.1,0c-0.1,0.1-0.3,0.2-0.4,0.2c-0.2,0.1-0.3,0.1-0.5,0.2
				c0,0,0,0,0,0C67,9.7,52.9,24.6,47.5,42.2c-5,16.1-2.8,34.3,6,48.7c5.1,8.4,12.2,15.5,20.6,20.5c8,4.8,17.2,7.4,26.5,8.3
				c6.4,0.9,13-0.2,19.2-1.8c16-4,30-15,37.9-29.4C168.7,69.1,167.2,43.5,154.2,25.4z M52.5,72.8c-0.3,0.1-0.5-0.1-0.6-0.4
				c-4.4-17.8,1.3-37.5,14.1-50.7c9.2-9.4,22-15.3,35.1-16.1c0.3,0,0.6,0.3,0.5,0.6c-1.3,8-2.7,16.1-4.3,24c0,0.2-0.2,0.4-0.4,0.4
				c-9.1,1.7-17.7,6.2-24.1,13c-7,7.2-11.4,16.7-12.4,26.7c0,0.2-0.2,0.4-0.4,0.4C57.5,71.5,55,72.2,52.5,72.8z M96.1,37.2
				c-1.2,8.3-2.9,16.6-4.2,24.9c0,0.2-0.2,0.3-0.4,0.4c-8.2,2.3-16.5,4.4-24.7,6.6c-0.4,0.1-0.7-0.2-0.6-0.6
				c1.7-8.7,5.8-17.1,12.6-23c4.8-4.2,10.6-7.2,16.7-8.9C95.8,36.5,96.2,36.8,96.1,37.2z M65.6,97.5c-5.3-5.4-9.5-12-11.9-19.2
				c-0.1-0.4,0.2-0.7,0.6-0.6c1.9,0.5,3.8,0.9,5.6,1.4c0.2,0,0.3,0.2,0.4,0.4c0.9,6.7,2.9,13.3,6.6,19.1
				C66.4,98.3,66,97.9,65.6,97.5z M79.9,105.2c-4.1-3.3-7.4-7.4-9.8-12.1c-1.9-3.6-3-7.6-3.9-11.6c-0.1-0.3,0.2-0.7,0.6-0.6
				c3.8,0.6,7.4,1.8,11.2,2.6c0.3,0.1,0.4,0.3,0.4,0.6c-1.6,6.8-0.9,14.3,2.3,20.5C80.9,105.1,80.3,105.5,79.9,105.2z M99.8,113.4
				c-5.2-1.6-9.9-4.7-13-9.1C83.1,99,81.8,92,83.6,85.8c0,0,0-0.1,0.1-0.1c0.1-0.1,0.1-0.2,0.2-0.4c0.1-0.2,0.3-0.3,0.6-0.2
				c2.4,0.6,4.7,1.2,7.1,1.8c0.2,0,0.3,0.2,0.4,0.3c2.6,8.6,5.8,17,8.5,25.6C100.5,113.2,100.2,113.5,99.8,113.4z M105.3,107.3
				c-0.2,0.4-0.8,0.4-0.9,0c-2.7-8.1-5.5-16.1-8.2-24.2c-0.1-0.9-1.1-0.8-1.7-1.1c-8.8-2.3-17.7-4.4-26.6-6.6c-0.5-0.1-0.5-0.8,0-1
				c1.5-0.5,3.1-0.7,4.6-1.2c7.9-2.2,15.9-4.1,23.8-6.3c0.2-0.1,0.3-0.2,0.4-0.4c2.8-14.6,5.3-29.3,7.8-44c0.1-0.5,0.8-0.6,1,0
				c0,0,0,0.1,0,0.1c2.9,14.6,5.1,29.2,7.9,43.8c0,0.2,0.2,0.3,0.4,0.4c9,2.5,18,4.8,27,7.2c0.5,0.2,1.1,0.2,1.6,0.4
				c0.5,0.1,0.5,0.8,0,1c-8.4,2-16.7,4.2-25.1,6.2c-1,0.3-2.1,0.3-3,0.9c-0.1,0.1-0.2,0.1-0.2,0.2
				C110.9,90.8,108.2,99.1,105.3,107.3z M114.1,36.4c7.5,1.9,14.6,5.5,20,11.1c4.2,4.3,7.1,9.8,9,15.5c0.6,1.9,1.2,3.9,1.4,5.9
				c0,0.3-0.3,0.6-0.6,0.5c-8.5-2.4-17-4.5-25.5-6.8c-0.2-0.2-0.3-0.4-0.5-0.6c-1.3-8.4-3.1-16.7-4.4-25.1
				C113.5,36.6,113.8,36.3,114.1,36.4z M126.3,101.3c-3,6.6-9.5,11.4-16.6,12.5c-0.4,0.1-0.7-0.3-0.5-0.6c2.8-8.7,6-17.3,8.9-26
				c0.1-0.2,0.2-0.3,0.4-0.3c3-0.6,5.9-1.6,8.9-2c0.2,0,0.5,0.1,0.5,0.4C129.2,90.5,128.8,96.3,126.3,101.3z M144.6,81.2
				c-1.4,8.7-5.8,16.9-12.4,22.9c-0.4,0.4-1-0.1-0.8-0.6c2.6-6.2,3.5-13.2,1.6-19.7c-0.1-0.3,0.1-0.6,0.3-0.6
				c3.5-0.9,7-1.9,10.6-2.6C144.4,80.6,144.7,80.9,144.6,81.2z M156.3,78.3c-2,5.8-5.2,11.2-9,16c-0.4,0.4-1.1,0-0.8-0.5
				c2-4.6,3.5-9.4,3.9-14.5c0-0.2,0.2-0.4,0.4-0.4c1.7-0.3,3.3-0.8,5-1.2C156.1,77.6,156.4,77.9,156.3,78.3z M157.6,72.8
				c-2.4-0.3-4.6-1.2-6.9-1.8c-0.2-0.1-0.3-0.2-0.4-0.4c-1-10-5.2-19.9-12.4-27c-4.7-4.7-10.3-8.6-16.6-10.9
				c-2.8-1.1-5.7-1.7-8.7-2.3c-0.2,0-0.3-0.2-0.4-0.4c-1.4-7.9-2.9-15.9-4.2-23.8c-0.1-0.3,0.2-0.6,0.5-0.6
				c8.6,0.7,17.1,3.2,24.5,7.6c12.6,7.6,22,20.5,25.2,34.8c1.7,8,1.7,16.4-0.1,24.4C158.1,72.7,157.9,72.9,157.6,72.8z"/>
		</g>
	</g>
</g>
<g id="Слой_2">
</g>
</svg>
