<?xml version="1.0" encoding="UTF-8" standalone="no"?>
<svg
   xmlns:dc="http://purl.org/dc/elements/1.1/"
   xmlns:cc="http://creativecommons.org/ns#"
   xmlns:rdf="http://www.w3.org/1999/02/22-rdf-syntax-ns#"
   xmlns:svg="http://www.w3.org/2000/svg"
   xmlns="http://www.w3.org/2000/svg"
   viewBox="0 0 210 120"
   id="svg3712"
   height="120"
   width="210"
   version="1.1">
  <metadata
     id="metadata3718">
    <rdf:RDF>
      <cc:Work
         rdf:about="">
        <dc:format>image/svg+xml</dc:format>
        <dc:type
           rdf:resource="http://purl.org/dc/dcmitype/StillImage" />
        <dc:title></dc:title>
      </cc:Work>
    </rdf:RDF>
  </metadata>
  <defs
     id="defs3716" />
  <g
     transform="translate(0,-721.88977)"
     id="Layer1000">
    <g
       transform="matrix(0.86885772,0,0,0.86885772,-153.59568,414.15802)"
       id="Layer1001">
      <g
         id="Layer1002">
        <path
           id="path3701"
           style="fill:#ffffff;fill-rule:evenodd"
           d="m 368.8194,392.8346 c 33.2575,4.5314 42.3491,7.0554 44.8005,7.8641 2.4514,0.8087 3.9552,3.1791 3.9552,6.1909 0,9.3702 0,18.7404 0,28.1106 0,3.0118 -1.5038,5.3821 -3.9552,6.1909 -2.4514,0.8087 -11.543,3.3326 -44.8005,7.8641 -28.8246,3.9274 -60.5103,4.7823 -71.1839,4.7823 -10.6735,0 -37.9219,-0.2508 -71.1793,-4.7823 -33.2575,-4.5315 -42.3491,-7.0554 -44.8005,-7.8641 -2.4514,-0.8088 -3.9552,-3.1791 -3.9552,-6.1909 0,-9.3699 0,-18.7407 0,-28.1106 0,-3.0118 1.5038,-5.3822 3.9552,-6.1909 2.4514,-0.8087 11.543,-3.3327 44.8005,-7.8641 33.2574,-4.5315 60.5058,-4.7824 71.1793,-4.7824 10.6736,0 42.3593,0.8549 71.1839,4.7824 z" />
        <path
           id="path3703"
           style="fill:#3f5da1;fill-rule:evenodd"
           d="m 368.9323,391.9941 c 16.6586,2.2697 27.2588,4.0359 33.9993,5.3348 6.7923,1.3093 9.7129,2.1532 10.9542,2.5625 v 0.003 l 0.004,10e-4 0.001,-0.003 c 0.3906,0.129 0.7665,0.2974 1.1242,0.4995 0.3512,0.1987 0.6803,0.4308 0.9836,0.6913 1.5387,1.3232 2.4267,3.3872 2.4267,5.8057 v 28.1106 0.006 h -0.003 c -5e-4,0.9471 -0.1374,1.8408 -0.396,2.6555 l 0.003,9e-4 c -0.1069,0.3373 -0.2347,0.6607 -0.381,0.9677 -0.769,1.6112 -2.0693,2.8097 -3.7621,3.3679 -1.2416,0.4096 -4.1619,1.2532 -10.9542,2.5625 -6.74,1.2991 -17.3393,3.0648 -33.9959,5.3342 v 6e-4 l -0.0573,0.008 h -0.003 c -4.0564,0.5519 -8.1547,1.042 -12.2307,1.4763 -4.1246,0.4394 -8.2003,0.8215 -12.1691,1.1517 -20.571,1.713 -39.151,2.1563 -46.8397,2.1563 -5.3274,0 -14.8002,-0.0632 -27.1638,-0.6953 -12.3225,-0.6299 -27.4728,-1.8278 -44.1284,-4.0969 -16.6583,-2.2697 -27.2588,-4.0357 -33.9993,-5.3348 -6.7923,-1.3093 -9.7126,-2.1529 -10.9542,-2.5625 v -0.003 l -0.004,-0.002 -10e-4,0.003 c -0.3906,-0.129 -0.7665,-0.2974 -1.1242,-0.4995 -0.3512,-0.1987 -0.6803,-0.4309 -0.9836,-0.6914 -1.5387,-1.3232 -2.4268,-3.3871 -2.4268,-5.8056 v -28.1106 -0.006 h 0.003 c 6e-4,-0.947 0.1375,-1.8408 0.396,-2.6555 l -0.003,-8e-4 c 0.1069,-0.337 0.2347,-0.6608 0.381,-0.9678 0.769,-1.6112 2.0693,-2.8097 3.7621,-3.3678 1.2413,-0.4093 4.1619,-1.2532 10.9542,-2.5625 6.7405,-1.2989 17.341,-3.0651 33.9993,-5.3348 16.6556,-2.2692 31.8059,-3.4671 44.1284,-4.0969 12.3636,-0.6322 21.8364,-0.6954 27.1638,-0.6954 h 0.0213 v 0.003 c 5.3674,6e-4 15.9831,0.2152 28.836,0.9199 2.1226,0.1162 4.2806,0.2446 6.4548,0.3846 11.3232,0.7305 23.9003,1.838 35.9847,3.4844 z m 33.6801,7.0021 c -6.732,-1.2974 -17.3078,-3.0597 -33.9058,-5.3212 -12.0285,-1.6387 -24.5676,-2.7422 -35.8656,-3.4713 -2.2269,-0.1434 -4.377,-0.2715 -6.4412,-0.3846 -12.8528,-0.7047 -23.417,-0.9196 -28.743,-0.9199 v 0.003 h -0.0213 c -5.3458,0 -14.8348,0.0624 -27.0776,0.6885 -12.284,0.6279 -27.387,1.8219 -43.9889,4.0839 -16.598,2.2615 -27.1738,4.0238 -33.9058,5.3212 -6.6804,1.2875 -9.5323,2.1113 -10.7416,2.5098 -1.2365,0.4076 -2.1903,1.2918 -2.7592,2.484 -0.1134,0.2381 -0.2126,0.4884 -0.2948,0.7484 h -0.003 c -0.2069,0.6514 -0.3166,1.3736 -0.3169,2.1449 h 0.003 v 0.006 28.1106 c 0,1.9148 0.6693,3.5201 1.8287,4.517 0.2213,0.1902 0.4617,0.3597 0.7183,0.5048 0.25,0.1415 0.5235,0.2625 0.8186,0.36 v 0.003 l 0.004,0.002 0.001,-0.003 c 1.2093,0.3992 4.0615,1.2223 10.7416,2.5098 6.732,1.2977 17.3078,3.0598 33.9058,5.3212 16.6019,2.2621 31.7049,3.456 43.9889,4.0839 12.2428,0.6262 21.7318,0.6885 27.0776,0.6885 7.6675,0 26.1939,-0.4419 46.7002,-2.1495 4.0238,-0.335 8.0921,-0.7154 12.1295,-1.1454 4.0853,-0.4352 8.1689,-0.9233 12.1808,-1.469 v -5e-4 l 0.0572,-0.008 h 0.003 c 16.5983,-2.2614 27.1738,-4.0235 33.9058,-5.3212 6.6801,-1.2875 9.5323,-2.1106 10.7416,-2.5098 1.2365,-0.4076 2.1903,-1.2917 2.7592,-2.484 0.1134,-0.2381 0.2126,-0.4884 0.2948,-0.7483 h 0.003 c 0.207,-0.6517 0.3167,-1.3737 0.317,-2.145 h -0.003 V 435 406.8894 c 0,-1.9148 -0.6693,-3.5201 -1.8287,-4.517 -0.2214,-0.1902 -0.4617,-0.3597 -0.7183,-0.5049 -0.25,-0.1414 -0.5235,-0.2625 -0.8186,-0.36 v -0.003 l -0.004,-0.001 -10e-4,0.003 c -1.2093,-0.3985 -4.0612,-1.2223 -10.7416,-2.5098 z" />
        <path
           id="path3705"
           style="fill:#3f5da1;fill-rule:evenodd"
           d="m 366.3278,396.0933 c 30.062,4.1964 42.6682,7.0143 45.0476,7.7383 2.3797,0.7242 2.6878,1.8328 2.6878,4.5294 v 25.1677 c 0,2.6966 -0.3081,3.8053 -2.6878,4.5295 -2.3794,0.724 -14.9856,3.5419 -45.0476,7.7383 -30.062,4.1964 -58.3291,4.5975 -68.69,4.5975 -10.3609,0 -38.628,-0.4011 -68.69,-4.5975 -30.062,-4.1964 -42.6682,-7.0143 -45.0476,-7.7383 -2.3797,-0.7242 -2.6878,-1.8329 -2.6878,-4.5295 V 408.361 c 0,-2.6966 0.3081,-3.8052 2.6878,-4.5294 2.3794,-0.724 14.9856,-3.5419 45.0476,-7.7383 30.062,-4.1964 58.3291,-4.5976 68.69,-4.5976 10.3609,0 38.628,0.4012 68.69,4.5976 z" />
      </g>
      <path
         id="path3708"
         style="fill:#ffffff;fill-rule:evenodd"
         d="m 228.5651,409.9714 c 7.145,0 12.9396,5.7946 12.9396,12.9396 0,7.145 -5.7946,12.9396 -12.9396,12.9396 -7.145,0 -12.9396,-5.7946 -12.9396,-12.9396 0,-7.145 5.7946,-12.9396 12.9396,-12.9396 z m 117.6254,0 c 3.6357,0 6.9207,1.5007 9.2718,3.9161 l -4.0224,4.0223 c -1.3209,-1.3858 -3.1841,-2.2495 -5.2494,-2.2495 -4.004,0 -7.2508,3.2468 -7.2508,7.2507 0,4.0039 3.2468,7.2507 7.2508,7.2507 2.065,0 3.9279,-0.8645 5.2489,-2.2501 l 4.0223,4.0224 c -2.3507,2.4151 -5.6355,3.9166 -9.2712,3.9166 -7.1451,0 -12.9396,-5.7946 -12.9396,-12.9396 0,-7.145 5.7945,-12.9396 12.9396,-12.9396 z m -69.6209,22.1513 v 10.965 h -5.6889 v -20.1603 c 0,-7.145 5.7946,-12.9396 12.9396,-12.9396 7.145,0 12.9396,5.7946 12.9396,12.9396 0,7.145 -5.6279,12.661 -12.7726,12.6049 -3.5428,-0.0278 -5.9375,-1.8752 -7.4177,-3.4096 z m 7.2507,-16.446 c 4.004,0 7.2508,3.2468 7.2508,7.2507 0,4.004 -3.2468,7.2508 -7.2508,7.2508 -4.0039,0 -7.2507,-3.2468 -7.2507,-7.2508 0,-4.0039 3.2468,-7.2507 7.2507,-7.2507 z m -56.3,-14.0856 h 11.4899 v 5.6332 h -11.4899 c -4.4566,0.0559 -8.1332,2.0078 -11.1271,4.9641 v -6.8046 c 0,0 4.3866,-3.7927 11.1271,-3.7927 z m 15.8301,9.7177 h 5.5613 v 6.4032 5.199 c 0,4.0039 3.1739,7.2507 7.0883,7.2507 3.9138,0 7.0877,-3.2468 7.0877,-7.2507 v -11.6022 h 5.5613 v 11.6022 12.2201 h -5.6888 v -2.6719 c -1.4953,1.7955 -3.7701,3.1816 -7.9081,3.1822 -5.5863,8e-4 -11.7017,-5.5854 -11.7017,-12.7304 z m 123.8139,-1.3374 c 7.145,0 12.9396,5.7946 12.9396,12.9396 v 12.2201 h -5.6889 v -1.5032 c -2.0687,1.4023 -4.564,2.2227 -7.2507,2.2227 -7.145,0 -12.9396,-5.7946 -12.9396,-12.9396 0,-7.145 5.7946,-12.9396 12.9396,-12.9396 z m 0,5.6889 c 4.0039,0 7.2507,3.2468 7.2507,7.2507 0,4.0039 -3.2468,7.2507 -7.2507,7.2507 -4.004,0 -7.2508,-3.2468 -7.2508,-7.2507 0,-4.0039 3.2468,-7.2507 7.2508,-7.2507 z m -48.1587,-5.6889 c 7.145,0 12.9396,5.7946 12.9396,12.9396 0,7.145 -5.7946,12.9396 -12.9396,12.9396 -6.1854,0 -11.357,-4.3435 -12.6351,-10.1455 h -2.1762 v 9.426 h -5.6888 v -23.8223 h 5.6888 v 8.8081 h 2.1759 c 1.2776,-5.8028 6.4497,-10.1455 12.6354,-10.1455 z m 0,5.6889 c 4.004,0 7.2508,3.2468 7.2508,7.2507 0,4.0039 -3.2468,7.2507 -7.2508,7.2507 -4.0039,0 -7.2507,-3.2468 -7.2507,-7.2507 0,-4.0039 3.2468,-7.2507 7.2507,-7.2507 z m -90.4405,0 c 4.004,0 7.2508,3.2468 7.2508,7.2507 0,4.0039 -3.2468,7.2507 -7.2508,7.2507 -4.0039,0 -7.2507,-3.2468 -7.2507,-7.2507 0,-4.0039 3.2468,-7.2507 7.2507,-7.2507 z" />
    </g>
  </g>
</svg>
